<svg width="627" height="168" viewBox="0 0 627 168" fill="none" xmlns="http://www.w3.org/2000/svg">
<path d="M51.1165 15.5032C52.0757 13.4653 53.427 11.6362 55.0931 10.1205C56.7592 8.60475 58.7075 7.43203 60.8269 6.66927C62.9462 5.90651 65.195 5.56866 67.4449 5.67499C69.6948 5.78133 71.9017 6.32977 73.9397 7.28901L136.014 36.507C138.052 37.4662 139.881 38.8175 141.397 40.4836C142.913 42.1497 144.086 44.098 144.848 46.2174C145.611 48.3367 145.949 50.5855 145.843 52.8354C145.736 55.0853 145.188 57.2922 144.229 59.3302L100.402 152.442C99.4425 154.48 98.0912 156.309 96.4251 157.825C94.759 159.341 92.8107 160.514 90.6913 161.276C88.572 162.039 86.3232 162.377 84.0733 162.271C81.8234 162.164 79.6165 161.616 77.5785 160.657L15.5037 131.439C13.4658 130.479 11.6367 129.128 10.121 127.462C8.60525 125.796 7.43253 123.848 6.66977 121.728C5.90701 119.609 5.56915 117.36 5.67549 115.11C5.78182 112.86 6.33027 110.653 7.28951 108.615L51.1165 15.5032ZM132.362 44.2663L70.2874 15.0484C68.2295 14.0797 65.8711 13.9683 63.731 14.7385C61.5909 15.5087 59.8445 17.0975 58.8758 19.1555L35.6637 68.5764L14.2418 90.5666L15.0489 112.268C14.5692 113.287 14.295 114.39 14.2418 115.515C14.1887 116.64 14.3576 117.764 14.739 118.824C15.1204 119.884 15.7067 120.858 16.4646 121.691C17.2225 122.524 18.137 123.2 19.156 123.679L81.2308 152.897C83.2887 153.866 85.6471 153.977 87.7872 153.207C89.9273 152.437 91.6737 150.848 92.6424 148.79L136.469 55.6779C136.949 54.659 137.223 53.5555 137.276 52.4306C137.33 51.3056 137.161 50.1812 136.779 49.1215C136.398 48.0619 135.811 47.0877 135.054 46.2546C134.296 45.4216 133.381 44.746 132.362 44.2663Z" fill="#328B09"/>
<path d="M68.3253 28.6722C69.1741 27.0033 71.215 26.3384 72.8839 27.1872L109.146 45.6284C113.175 47.6774 110.101 53.721 106.072 51.672L69.8104 33.2308C68.1415 32.3821 67.4766 30.3411 68.3253 28.6722ZM66.7369 39.2744C62.7078 37.2254 59.6342 43.269 63.6633 45.3181L99.9251 63.7593C103.954 65.8083 107.028 59.7647 102.999 57.7156L66.7369 39.2744ZM60.5898 51.3617C56.5607 49.3127 53.4872 55.3563 57.5162 57.4053L75.6471 66.6259C79.6762 68.675 82.7498 62.6313 78.7207 60.5823L60.5898 51.3617Z" fill="#328B09"/>
<path d="M82.1273 110.496C79.553 122.813 85.0861 127.672 90.1326 132.978L120.807 67.5127C112.466 67.2958 104.051 66.9315 99.692 74.5235L82.1273 110.496Z" fill="#53C506"/>
<path fill-rule="evenodd" clip-rule="evenodd" d="M33.0744 137.823C31.3654 137.73 28.2389 137.248 26.7085 136.843C24.7597 136.328 23.6618 135.959 21.875 135.221C20.5492 134.673 18.8077 133.818 17.8983 133.268C17.4943 133.023 17.1339 132.823 17.0979 132.823C17.0612 132.823 16.9654 132.773 16.8894 132.705C16.8133 132.637 16.3318 132.32 15.8244 131.994C15.3175 131.669 14.7608 131.271 14.5879 131.111C14.4188 130.951 14.2371 130.82 14.1926 130.82C14.1447 130.82 14.0404 130.755 13.9559 130.667C13.8714 130.586 13.6409 130.394 13.4465 130.245C11.9125 129.063 8.99591 126.175 7.94841 124.801C7.77937 124.575 7.52101 124.26 7.37817 124.098C7.2373 123.934 7.03219 123.657 6.92682 123.479C6.81976 123.301 6.69298 123.155 6.64227 123.155C6.59437 123.155 6.5521 123.09 6.5521 123.008C6.55182 122.929 6.39152 122.675 6.19853 122.448C6.00413 122.22 5.84522 121.969 5.84522 121.888C5.84465 121.809 5.79169 121.739 5.7297 121.739C5.66772 121.739 5.61419 121.685 5.61419 121.612C5.61419 121.542 5.46205 121.264 5.28033 120.993C5.0972 120.723 4.91182 120.421 4.8704 120.324C4.82532 120.225 4.63375 119.882 4.44104 119.557C3.98321 118.793 2.996 116.761 2.65171 115.873C2.44323 115.333 2.28264 114.954 2.18149 114.755C2.12514 114.642 2.07726 114.454 2.07726 114.337C2.07726 114.221 2.03217 114.072 1.97864 114.011C1.92511 113.951 1.81243 113.66 1.72791 113.368C1.6462 113.076 1.53349 112.732 1.47996 112.602C1.42925 112.469 1.35037 112.207 1.31092 112.012C1.27148 111.818 1.18977 111.473 1.1306 111.246C0.496411 108.806 0.191872 106.682 0.0138131 103.466C-0.0509867 102.25 0.123683 98.6994 0.298642 97.7477C0.357808 97.4234 0.467683 96.7873 0.538118 96.3331C0.825209 94.539 1.65126 91.4706 2.19699 90.1732C2.43647 89.6058 2.57932 89.2502 2.6613 89.0237C2.7092 88.8913 2.86134 88.558 2.9994 88.2759C3.13745 87.9942 3.25295 87.6936 3.25295 87.608C3.25295 87.5234 3.29239 87.4389 3.34028 87.4136C3.38818 87.3854 3.64626 86.9498 3.91222 86.4311C4.72363 84.8492 4.95747 84.4288 5.04988 84.388C5.09778 84.3598 5.13722 84.2978 5.13722 84.233C5.13722 84.1259 6.15654 82.5612 6.49914 82.1422C6.58366 82.0352 6.90991 81.6041 7.21954 81.1832C7.52889 80.7617 7.86359 80.3371 7.96305 80.2396C8.06447 80.141 8.43524 79.7179 8.79108 79.2964C9.88056 78.0086 11.1419 76.8151 13.1538 75.1704C13.5105 74.8785 13.8286 74.6114 13.8612 74.5764C14.0275 74.3989 16.8516 72.5592 17.5154 72.1974C19.3918 71.1767 20.0232 70.8693 21.7009 70.1591C22.8462 69.6742 24.6975 69.0515 26.0628 68.692C27.4168 68.3354 28.3973 68.1477 31.067 67.7327C32.2362 67.5524 38.0434 67.5524 39.2664 67.7322C43.1198 68.3044 46.2654 69.1358 48.7255 70.232C49.0016 70.356 49.2563 70.4546 49.2938 70.4546C49.46 70.4546 52.2244 71.898 53.3542 72.5719C56.095 74.2082 59.16 76.7202 60.8231 78.6935C62.3296 80.4805 63.172 81.6658 65.4411 85.1912C66.0753 86.1762 67.8133 89.1998 68.9648 91.3213C70.7496 94.6091 74.2488 101.672 74.1623 101.813C74.1228 101.875 74.1341 101.931 74.2074 101.931C74.275 101.931 74.4046 102.1 74.4998 102.315C74.5956 102.526 74.9421 103.273 75.2706 103.978C75.6 104.681 75.8423 105.3 75.8099 105.353C75.7761 105.406 75.8099 105.465 75.8832 105.494C76.0015 105.536 76.1452 105.847 76.5019 106.855C76.5779 107.067 76.6765 107.238 76.7273 107.238C76.7752 107.238 76.8146 107.292 76.8146 107.362C76.8146 107.427 76.9949 107.866 77.2144 108.335C77.4341 108.803 77.7322 109.451 77.8759 109.775C78.0196 110.1 78.2644 110.645 78.4194 110.987C78.5772 111.33 80.0112 114.375 80.0112 114.404C81.811 124.603 76.3035 128.54 74.4933 130.59C74.1733 130.952 72.4874 128.3 72.1789 127.89C70.6369 125.84 70.3014 125.549 67.5293 121.202C67.1743 120.529 54.9294 99.3742 54.9703 99.308C55.0097 99.2404 54.9985 99.2207 54.9337 99.2573C54.8745 99.2967 54.6688 99.0234 54.4761 98.6569C54.2845 98.2886 53.989 97.7488 53.818 97.4572C50.6498 92.0527 49.8979 90.9939 47.8846 89.1017C47.5654 88.802 47.1011 88.3574 46.8531 88.1143C46.6052 87.872 46.4018 87.7004 46.4018 87.7344C46.4018 87.7683 45.9375 87.4865 45.3703 87.1082C44.393 86.4562 42.8277 85.6448 41.9219 85.3208C41.4731 85.1574 41.2147 85.0616 40.7081 84.8576C40.5278 84.7844 40.2714 84.7224 40.1404 84.7224C40.008 84.7224 39.7883 84.6604 39.6482 84.5844C39.5074 84.5083 39.2329 84.4322 39.0371 84.4153C38.8399 84.3871 38.2556 84.3139 37.7369 84.235C35.9665 83.9561 33.1598 84.066 31.1941 84.4801C30.9022 84.5393 30.5044 84.6266 30.3097 84.666C30.1153 84.7111 29.8502 84.7816 29.7203 84.8323C29.5879 84.883 29.2726 84.9929 29.0132 85.0689C27.9037 85.4079 25.445 86.6272 24.8989 87.1093C24.7694 87.222 24.5958 87.3149 24.511 87.3149C24.4265 87.3149 24.356 87.3713 24.356 87.4474C24.356 87.5206 24.2743 87.5488 24.1729 87.5066C24.0715 87.4671 24.0179 87.4784 24.0546 87.5403C24.0912 87.5967 23.9842 87.7319 23.8207 87.8381C23.0902 88.3168 21.3519 90.0005 20.5266 91.0291C20.2139 91.4185 19.9155 91.7244 19.8623 91.7089C19.8116 91.6808 19.7975 91.7568 19.8341 91.8582C19.8707 91.9569 19.8341 92.033 19.7834 92.033C19.7186 92.033 19.5439 92.2865 19.396 92.5933C19.2495 92.9007 19.0946 93.1793 19.0531 93.2117C18.9179 93.3188 17.9921 95.2287 17.9921 95.4014C17.9921 95.4944 17.9386 95.5705 17.8766 95.5705C17.8118 95.5705 17.7611 95.7001 17.7611 95.8581C17.7611 96.0187 17.7104 96.1787 17.6456 96.219C17.5836 96.2585 17.5301 96.3909 17.5301 96.5219C17.5301 96.6515 17.4794 96.8445 17.4258 96.9571C17.2399 97.324 17.0582 97.9968 17.0582 98.3129C17.0582 98.4819 17.0046 98.6543 16.9426 98.6941C16.8807 98.7335 16.8271 98.9646 16.8271 99.2032C16.8271 99.4427 16.768 99.8242 16.6975 100.051C16.5567 100.513 16.5172 104.317 16.6525 104.538C16.7004 104.617 16.7905 105.031 16.844 105.459C17.0384 106.908 17.0835 107.125 17.1889 107.19C17.2481 107.227 17.296 107.407 17.296 107.595C17.296 107.781 17.3438 107.964 17.4002 107.999C17.4932 108.055 17.589 108.403 17.6912 109.062C17.7194 109.189 17.7898 109.313 17.8631 109.338C17.9363 109.366 18.004 109.462 18.004 109.552C18.004 109.642 18.049 109.811 18.1082 109.926C18.6813 111.049 18.9314 111.652 18.8683 111.754C18.8233 111.827 18.8401 111.838 18.9275 111.793C19.0064 111.742 19.0965 111.793 19.1416 111.923C19.2487 112.212 20.1407 113.541 20.2618 113.591C20.3153 113.619 20.3604 113.675 20.3604 113.734C20.3604 113.791 20.4506 113.954 20.5661 114.09C21.0927 114.723 21.999 115.697 22.4676 116.134C22.7515 116.396 23.242 116.86 23.5579 117.16C23.8743 117.46 24.1326 117.684 24.1326 117.658C24.1326 117.629 24.5966 117.92 25.1641 118.298C25.7315 118.676 26.5003 119.132 26.8736 119.311C27.2461 119.492 27.5515 119.686 27.5515 119.744C27.5515 119.803 27.6276 119.823 27.7149 119.786C27.8051 119.749 27.9149 119.786 27.9572 119.845C28.0023 119.915 28.1291 119.972 28.2497 119.972C28.3652 119.972 28.5286 120.048 28.6094 120.146C28.6883 120.245 28.7926 120.299 28.8405 120.268C28.8855 120.237 29.2132 120.316 29.5637 120.428C31.5511 121.101 34.0214 121.462 35.8138 121.342C37.3918 121.235 38.1578 121.153 38.6306 121.031C38.8588 120.975 39.3087 120.865 39.6325 120.786C41.5984 120.323 43.6802 119.375 45.6183 118.059C46.3108 117.588 46.53 117.411 47.5876 116.46C47.8942 116.184 48.177 115.958 48.2156 115.958C48.272 115.958 57.367 125.037 59.4601 127.181L59.8945 127.625L58.9231 128.535C58.1272 129.28 57.0583 130.153 55.3639 131.439C54.5387 132.066 52.9821 133.021 52.1281 133.423C51.8044 133.578 51.5108 133.739 51.4756 133.786C51.4221 133.859 50.527 134.288 48.6915 135.124C48.4858 135.217 48.2212 135.262 48.1021 135.225C47.964 135.18 47.933 135.192 48.026 135.259C48.1781 135.369 47.9753 135.476 46.9419 135.817C43.9546 136.799 41.7925 137.324 39.6023 137.598C38.2091 137.773 34.5141 137.898 33.0896 137.821L33.0744 137.823Z" fill="#53C506"/>
<path d="M280.688 58.608L263.12 126H243.248L232.496 81.648L221.36 126H201.488L184.4 58.608H201.968L211.664 107.664L223.664 58.608H241.712L253.232 107.664L263.024 58.608H280.688ZM305.337 71.76V85.392H327.321V98.064H305.337V112.848H330.201V126H288.921V58.608H330.201V71.76H305.337ZM381.658 91.44C385.562 92.272 388.698 94.224 391.066 97.296C393.434 100.304 394.618 103.76 394.618 107.664C394.618 113.296 392.634 117.776 388.666 121.104C384.762 124.368 379.29 126 372.25 126H340.858V58.608H371.194C378.042 58.608 383.386 60.176 387.226 63.312C391.13 66.448 393.082 70.704 393.082 76.08C393.082 80.048 392.026 83.344 389.914 85.968C387.866 88.592 385.114 90.416 381.658 91.44ZM357.274 85.872H368.026C370.714 85.872 372.762 85.296 374.17 84.144C375.642 82.928 376.378 81.168 376.378 78.864C376.378 76.56 375.642 74.8 374.17 73.584C372.762 72.368 370.714 71.76 368.026 71.76H357.274V85.872ZM369.37 112.752C372.122 112.752 374.234 112.144 375.706 110.928C377.242 109.648 378.01 107.824 378.01 105.456C378.01 103.088 377.21 101.232 375.61 99.888C374.074 98.544 371.93 97.872 369.178 97.872H357.274V112.752H369.37ZM442.043 92.208C442.043 85.552 443.483 79.632 446.363 74.448C449.243 69.2 453.243 65.136 458.363 62.256C463.547 59.312 469.403 57.84 475.931 57.84C483.931 57.84 490.779 59.952 496.475 64.176C502.171 68.4 505.979 74.16 507.899 81.456H489.851C488.507 78.64 486.587 76.496 484.091 75.024C481.659 73.552 478.875 72.816 475.739 72.816C470.683 72.816 466.587 74.576 463.451 78.096C460.315 81.616 458.747 86.32 458.747 92.208C458.747 98.096 460.315 102.8 463.451 106.32C466.587 109.84 470.683 111.6 475.739 111.6C478.875 111.6 481.659 110.864 484.091 109.392C486.587 107.92 488.507 105.776 489.851 102.96H507.899C505.979 110.256 502.171 116.016 496.475 120.24C490.779 124.4 483.931 126.48 475.931 126.48C469.403 126.48 463.547 125.04 458.363 122.16C453.243 119.216 449.243 115.152 446.363 109.968C443.483 104.784 442.043 98.864 442.043 92.208ZM581.216 58.608L557.312 126H536.768L512.864 58.608H530.336L547.04 109.488L563.84 58.608H581.216Z" fill="#262222"/>
</svg>
