<svg width="70" height="70" viewBox="0 0 70 70" fill="none" xmlns="http://www.w3.org/2000/svg">
<circle cx="34.5549" cy="34.5549" r="34.5549" fill="#01A3B9"/>
<g clip-path="url(#clip0_880_62)">
<path d="M21.657 13.6483C21.8991 13.3666 22.1996 13.1404 22.5378 12.9853C22.876 12.8303 23.244 12.75 23.6164 12.75H45.6336C46.006 12.75 46.374 12.8303 46.7122 12.9853C47.0504 13.1404 47.3509 13.3666 47.593 13.6483L54.3193 21.4613C54.9199 22.159 55.25 23.0475 55.25 23.9663V24.6208C55.2501 25.8913 54.8516 27.13 54.11 28.1639C53.3684 29.1978 52.3209 29.9752 51.1139 30.3875C49.9068 30.7997 48.6005 30.8262 47.3776 30.4633C46.1547 30.1003 45.0762 29.366 44.293 28.363C43.721 29.0965 42.988 29.6899 42.1501 30.0979C41.3122 30.5059 40.3917 30.7175 39.459 30.7167C38.5262 30.7177 37.6056 30.5061 36.7677 30.0982C35.9298 29.6902 35.1968 29.0966 34.625 28.363C34.0532 29.0966 33.3202 29.6902 32.4823 30.0982C31.6444 30.5061 30.7238 30.7177 29.791 30.7167C28.8583 30.7177 27.9377 30.5061 27.0998 30.0982C26.2618 29.6902 25.5289 29.0966 24.957 28.363C24.1738 29.366 23.0953 30.1003 21.8724 30.4633C20.6495 30.8262 19.3432 30.7997 18.1361 30.3875C16.9291 29.9752 15.8816 29.1978 15.14 28.1639C14.3984 27.13 13.9999 25.8913 14 24.6208V23.9663C14 23.0475 14.3301 22.159 14.9307 21.4613L21.6596 13.6458L21.657 13.6483ZM26.2461 24.6208C26.2461 25.5568 26.6196 26.4545 27.2844 27.1163C27.9492 27.7782 28.8508 28.15 29.791 28.15C30.7312 28.15 31.6329 27.7782 32.2977 27.1163C32.9625 26.4545 33.3359 25.5568 33.3359 24.6208C33.3359 24.2805 33.4717 23.9541 33.7135 23.7134C33.9552 23.4727 34.2831 23.3375 34.625 23.3375C34.9669 23.3375 35.2948 23.4727 35.5365 23.7134C35.7783 23.9541 35.9141 24.2805 35.9141 24.6208C35.9141 25.5568 36.2875 26.4545 36.9523 27.1163C37.6171 27.7782 38.5188 28.15 39.459 28.15C40.3992 28.15 41.3008 27.7782 41.9656 27.1163C42.6304 26.4545 43.0039 25.5568 43.0039 24.6208C43.0039 24.2805 43.1397 23.9541 43.3815 23.7134C43.6232 23.4727 43.9511 23.3375 44.293 23.3375C44.6348 23.3375 44.9627 23.4727 45.2045 23.7134C45.4462 23.9541 45.582 24.2805 45.582 24.6208C45.582 25.5568 45.9555 26.4545 46.6203 27.1163C47.2851 27.7782 48.1868 28.15 49.127 28.15C50.0671 28.15 50.9688 27.7782 51.6336 27.1163C52.2984 26.4545 52.6719 25.5568 52.6719 24.6208V23.9663C52.6719 23.6605 52.5622 23.3646 52.3625 23.1322L45.6336 15.3167H23.6164L16.8875 23.1322C16.6878 23.3646 16.5781 23.6605 16.5781 23.9663V24.6208C16.5781 25.5568 16.9516 26.4545 17.6164 27.1163C18.2812 27.7782 19.1829 28.15 20.123 28.15C21.0632 28.15 21.9649 27.7782 22.6297 27.1163C23.2945 26.4545 23.668 25.5568 23.668 24.6208C23.668 24.2805 23.8038 23.9541 24.0455 23.7134C24.2873 23.4727 24.6152 23.3375 24.957 23.3375C25.2989 23.3375 25.6268 23.4727 25.8685 23.7134C26.1103 23.9541 26.2461 24.2805 26.2461 24.6208V24.6208ZM17.8672 32C18.2091 32 18.5369 32.1352 18.7787 32.3759C19.0204 32.6165 19.1562 32.943 19.1562 33.2833V48.6833H50.0938V33.2833C50.0938 32.943 50.2296 32.6165 50.4713 32.3759C50.7131 32.1352 51.0409 32 51.3828 32C51.7247 32 52.0526 32.1352 52.2943 32.3759C52.5361 32.6165 52.6719 32.943 52.6719 33.2833V48.6833H53.9609C54.3028 48.6833 54.6307 48.8185 54.8724 49.0592C55.1142 49.2999 55.25 49.6263 55.25 49.9667C55.25 50.307 55.1142 50.6334 54.8724 50.8741C54.6307 51.1148 54.3028 51.25 53.9609 51.25H15.2891C14.9472 51.25 14.6193 51.1148 14.3776 50.8741C14.1358 50.6334 14 50.307 14 49.9667C14 49.6263 14.1358 49.2999 14.3776 49.0592C14.6193 48.8185 14.9472 48.6833 15.2891 48.6833H16.5781V33.2833C16.5781 32.943 16.7139 32.6165 16.9557 32.3759C17.1974 32.1352 17.5253 32 17.8672 32V32ZM23.0234 33.2833C23.3653 33.2833 23.6932 33.4185 23.9349 33.6592C24.1767 33.8999 24.3125 34.2263 24.3125 34.5667V43.55H44.9375V34.5667C44.9375 34.2263 45.0733 33.8999 45.3151 33.6592C45.5568 33.4185 45.8847 33.2833 46.2266 33.2833C46.5684 33.2833 46.8963 33.4185 47.1381 33.6592C47.3798 33.8999 47.5156 34.2263 47.5156 34.5667V43.55C47.5156 44.2307 47.244 44.8836 46.7605 45.3649C46.277 45.8462 45.6213 46.1167 44.9375 46.1167H24.3125C23.6287 46.1167 22.973 45.8462 22.4895 45.3649C22.006 44.8836 21.7344 44.2307 21.7344 43.55V34.5667C21.7344 34.2263 21.8702 33.8999 22.1119 33.6592C22.3537 33.4185 22.6816 33.2833 23.0234 33.2833Z" fill="white"/>
<path d="M36.8962 32.5084C36.9139 32.4591 36.9201 32.4073 36.9144 32.3559C36.9088 32.3045 36.8914 32.2546 36.8632 32.209C36.835 32.1634 36.7966 32.123 36.7503 32.0901C36.7039 32.0573 36.6504 32.0325 36.5928 32.0174C36.5353 32.0022 36.4749 31.9969 36.4149 32.0017C36.355 32.0066 36.2968 32.0215 36.2436 32.0457C36.1904 32.0698 36.1433 32.1027 36.1049 32.1425C36.0665 32.1823 36.0377 32.2281 36.02 32.2774L32.3538 42.4916C32.318 42.5912 32.3299 42.6989 32.3868 42.791C32.4437 42.8831 32.541 42.952 32.6572 42.9826C32.7733 43.0133 32.899 43.0031 33.0064 42.9543C33.1138 42.9055 33.1943 42.8222 33.23 42.7226L36.8962 32.5084V32.5084ZM31.7415 34.4719C31.7842 34.5084 31.818 34.5517 31.8412 34.5995C31.8643 34.6472 31.8761 34.6984 31.8761 34.75C31.8761 34.8017 31.8643 34.8529 31.8412 34.9006C31.818 34.9483 31.7842 34.9917 31.7415 35.0282L28.8571 37.5L31.7415 39.9718C31.8276 40.0456 31.8759 40.1456 31.8759 40.25C31.8759 40.3543 31.8276 40.4543 31.7415 40.5281C31.6555 40.6019 31.5387 40.6433 31.417 40.6433C31.2954 40.6433 31.1786 40.6019 31.0926 40.5281L27.8846 37.7781C27.842 37.7416 27.8081 37.6983 27.785 37.6506C27.7619 37.6028 27.75 37.5517 27.75 37.5C27.75 37.4483 27.7619 37.3972 27.785 37.3494C27.8081 37.3017 27.842 37.2584 27.8846 37.2219L31.0926 34.4719C31.1352 34.4353 31.1857 34.4063 31.2414 34.3865C31.2971 34.3667 31.3568 34.3565 31.417 34.3565C31.4773 34.3565 31.537 34.3667 31.5927 34.3865C31.6484 34.4063 31.6989 34.4353 31.7415 34.4719V34.4719ZM37.5085 34.4719C37.4658 34.5084 37.432 34.5517 37.4088 34.5995C37.3857 34.6472 37.3739 34.6984 37.3739 34.75C37.3739 34.8017 37.3857 34.8529 37.4088 34.9006C37.432 34.9483 37.4658 34.9917 37.5085 35.0282L40.3929 37.5L37.5085 39.9718C37.4659 40.0084 37.4321 40.0517 37.409 40.0994C37.386 40.1472 37.3741 40.1983 37.3741 40.25C37.3741 40.3016 37.386 40.3528 37.409 40.4005C37.4321 40.4482 37.4659 40.4916 37.5085 40.5281C37.5511 40.5646 37.6017 40.5936 37.6574 40.6134C37.713 40.6331 37.7727 40.6433 37.833 40.6433C37.8932 40.6433 37.9529 40.6331 38.0085 40.6134C38.0642 40.5936 38.1148 40.5646 38.1574 40.5281L41.3654 37.7781C41.408 37.7416 41.4419 37.6983 41.465 37.6506C41.4881 37.6028 41.5 37.5517 41.5 37.5C41.5 37.4483 41.4881 37.3972 41.465 37.3494C41.4419 37.3017 41.408 37.2584 41.3654 37.2219L38.1574 34.4719C38.1148 34.4353 38.0643 34.4063 38.0086 34.3865C37.9529 34.3667 37.8932 34.3565 37.833 34.3565C37.7727 34.3565 37.713 34.3667 37.6573 34.3865C37.6016 34.4063 37.5511 34.4353 37.5085 34.4719V34.4719Z" fill="white"/>
</g>
<defs>
<clipPath id="clip0_880_62">
<rect width="44" height="44" fill="white" transform="translate(14 10)"/>
</clipPath>
</defs>
</svg>
