<svg width="70" height="70" viewBox="0 0 70 70" fill="none" xmlns="http://www.w3.org/2000/svg">
<circle cx="34.5549" cy="34.5549" r="34.5549" fill="#01A3B9"/>
<path d="M19.6562 15C18.6866 15 17.7566 15.3852 17.0709 16.0709C16.3852 16.7566 16 17.6866 16 18.6562V35.7188C16 36.6884 16.3852 37.6184 17.0709 38.3041C17.7566 38.9898 18.6866 39.375 19.6562 39.375H30.625V41.8125H18.4375C17.791 41.8125 17.171 42.0693 16.7139 42.5264C16.2568 42.9835 16 43.6035 16 44.25V51.5625C16 52.209 16.2568 52.829 16.7139 53.2861C17.171 53.7432 17.791 54 18.4375 54H52.5625C53.209 54 53.829 53.7432 54.2861 53.2861C54.7432 52.829 55 52.209 55 51.5625V44.25C55 43.6035 54.7432 42.9835 54.2861 42.5264C53.829 42.0693 53.209 41.8125 52.5625 41.8125H40.375V39.375H51.3438C52.3134 39.375 53.2434 38.9898 53.9291 38.3041C54.6148 37.6184 55 36.6884 55 35.7188V18.6562C55 17.6866 54.6148 16.7566 53.9291 16.0709C53.2434 15.3852 52.3134 15 51.3438 15H19.6562ZM19.6562 17.4375H51.3438C51.667 17.4375 51.977 17.5659 52.2055 17.7945C52.4341 18.023 52.5625 18.333 52.5625 18.6562V35.7188C52.5625 36.042 52.4341 36.352 52.2055 36.5805C51.977 36.8091 51.667 36.9375 51.3438 36.9375H19.6562C19.333 36.9375 19.023 36.8091 18.7945 36.5805C18.5659 36.352 18.4375 36.042 18.4375 35.7188V18.6562C18.4375 18.333 18.5659 18.023 18.7945 17.7945C19.023 17.5659 19.333 17.4375 19.6562 17.4375ZM45.25 45.4688C45.25 45.1455 45.3784 44.8355 45.607 44.607C45.8355 44.3784 46.1455 44.25 46.4688 44.25C46.792 44.25 47.102 44.3784 47.3305 44.607C47.5591 44.8355 47.6875 45.1455 47.6875 45.4688C47.6875 45.792 47.5591 46.102 47.3305 46.3305C47.102 46.5591 46.792 46.6875 46.4688 46.6875C46.1455 46.6875 45.8355 46.5591 45.607 46.3305C45.3784 46.102 45.25 45.792 45.25 45.4688ZM50.125 45.4688C50.125 45.1455 50.2534 44.8355 50.482 44.607C50.7105 44.3784 51.0205 44.25 51.3438 44.25C51.667 44.25 51.977 44.3784 52.2055 44.607C52.4341 44.8355 52.5625 45.1455 52.5625 45.4688C52.5625 45.792 52.4341 46.102 52.2055 46.3305C51.977 46.5591 51.667 46.6875 51.3438 46.6875C51.0205 46.6875 50.7105 46.5591 50.482 46.3305C50.2534 46.102 50.125 45.792 50.125 45.4688ZM19.6562 44.25H31.8438C32.167 44.25 32.477 44.3784 32.7055 44.607C32.9341 44.8355 33.0625 45.1455 33.0625 45.4688C33.0625 45.792 32.9341 46.102 32.7055 46.3305C32.477 46.5591 32.167 46.6875 31.8438 46.6875H19.6562C19.333 46.6875 19.023 46.5591 18.7945 46.3305C18.5659 46.102 18.4375 45.792 18.4375 45.4688C18.4375 45.1455 18.5659 44.8355 18.7945 44.607C19.023 44.3784 19.333 44.25 19.6562 44.25ZM18.4375 49.7344C18.4375 49.5728 18.5017 49.4178 18.616 49.3035C18.7303 49.1892 18.8853 49.125 19.0469 49.125H32.4531C32.6147 49.125 32.7697 49.1892 32.884 49.3035C32.9983 49.4178 33.0625 49.5728 33.0625 49.7344C33.0625 49.896 32.9983 50.051 32.884 50.1653C32.7697 50.2795 32.6147 50.3438 32.4531 50.3438H19.0469C18.8853 50.3438 18.7303 50.2795 18.616 50.1653C18.5017 50.051 18.4375 49.896 18.4375 49.7344Z" fill="white"/>
</svg>
