<svg width="61" height="61" viewBox="0 0 61 61" fill="none" xmlns="http://www.w3.org/2000/svg">
<circle cx="30.5" cy="30.5" r="30.5" fill="#C5789D"/>
<g clip-path="url(#clip0_747_155)">
<path d="M29.5 19.5625C29.5 19.1481 29.6646 18.7507 29.9576 18.4576C30.2507 18.1646 30.6481 18 31.0625 18H40.4375C40.8519 18 41.2493 18.1646 41.5424 18.4576C41.8354 18.7507 42 19.1481 42 19.5625V41.4375C42 41.8519 41.8354 42.2493 41.5424 42.5424C41.2493 42.8354 40.8519 43 40.4375 43H31.0625C30.6481 43 30.2507 42.8354 29.9576 42.5424C29.6646 42.2493 29.5 41.8519 29.5 41.4375V19.5625ZM31.0625 40.6562C31.0625 40.8635 31.1448 41.0622 31.2913 41.2087C31.4378 41.3552 31.6365 41.4375 31.8438 41.4375C32.051 41.4375 32.2497 41.3552 32.3962 41.2087C32.5427 41.0622 32.625 40.8635 32.625 40.6562C32.625 40.449 32.5427 40.2503 32.3962 40.1038C32.2497 39.9573 32.051 39.875 31.8438 39.875C31.6365 39.875 31.4378 39.9573 31.2913 40.1038C31.1448 40.2503 31.0625 40.449 31.0625 40.6562ZM34.1875 40.6562C34.1875 40.8635 34.2698 41.0622 34.4163 41.2087C34.5628 41.3552 34.7615 41.4375 34.9688 41.4375C35.176 41.4375 35.3747 41.3552 35.5212 41.2087C35.6677 41.0622 35.75 40.8635 35.75 40.6562C35.75 40.449 35.6677 40.2503 35.5212 40.1038C35.3747 39.9573 35.176 39.875 34.9688 39.875C34.7615 39.875 34.5628 39.9573 34.4163 40.1038C34.2698 40.2503 34.1875 40.449 34.1875 40.6562ZM31.8438 19.5625C31.6365 19.5625 31.4378 19.6448 31.2913 19.7913C31.1448 19.9378 31.0625 20.1365 31.0625 20.3438C31.0625 20.551 31.1448 20.7497 31.2913 20.8962C31.4378 21.0427 31.6365 21.125 31.8438 21.125H39.6562C39.8635 21.125 40.0622 21.0427 40.2087 20.8962C40.3552 20.7497 40.4375 20.551 40.4375 20.3438C40.4375 20.1365 40.3552 19.9378 40.2087 19.7913C40.0622 19.6448 39.8635 19.5625 39.6562 19.5625H31.8438ZM31.0625 23.4688C31.0625 23.676 31.1448 23.8747 31.2913 24.0212C31.4378 24.1677 31.6365 24.25 31.8438 24.25H39.6562C39.8635 24.25 40.0622 24.1677 40.2087 24.0212C40.3552 23.8747 40.4375 23.676 40.4375 23.4688C40.4375 23.2615 40.3552 23.0628 40.2087 22.9163C40.0622 22.7698 39.8635 22.6875 39.6562 22.6875H31.8438C31.6365 22.6875 31.4378 22.7698 31.2913 22.9163C31.1448 23.0628 31.0625 23.2615 31.0625 23.4688ZM19.3438 21.125C18.7221 21.125 18.126 21.3719 17.6865 21.8115C17.2469 22.251 17 22.8471 17 23.4688V34.4062C17 35.0279 17.2469 35.624 17.6865 36.0635C18.126 36.5031 18.7221 36.75 19.3438 36.75H26.375V39.875H25.5938C25.3865 39.875 25.1878 39.9573 25.0413 40.1038C24.8948 40.2503 24.8125 40.449 24.8125 40.6562C24.8125 40.8635 24.8948 41.0622 25.0413 41.2087C25.1878 41.3552 25.3865 41.4375 25.5938 41.4375H27.9375V35.1875H19.3438C19.1365 35.1875 18.9378 35.1052 18.7913 34.9587C18.6448 34.8122 18.5625 34.6135 18.5625 34.4062V23.4688C18.5625 23.2615 18.6448 23.0628 18.7913 22.9163C18.9378 22.7698 19.1365 22.6875 19.3438 22.6875H27.9375V21.125H19.3438Z" fill="white"/>
</g>
<defs>
<clipPath id="clip0_747_155">
<rect width="25" height="25" fill="white" transform="translate(17 18)"/>
</clipPath>
</defs>
</svg>
