<svg width="61" height="61" viewBox="0 0 61 61" fill="none" xmlns="http://www.w3.org/2000/svg">
<circle cx="30.5" cy="30.5" r="30.5" fill="#C5789D"/>
<path fill-rule="evenodd" clip-rule="evenodd" d="M43.6798 17.1974C43.7799 17.2796 43.8606 17.3829 43.916 17.5001C43.9714 17.6172 44.0001 17.7452 44 17.8747V42.3755C43.9999 42.5777 43.9297 42.7736 43.8015 42.9299C43.6732 43.0863 43.4948 43.1933 43.2965 43.233L34.5465 44.983C34.4333 45.0056 34.3167 45.0056 34.2035 44.983L25.625 43.268L17.0465 44.983C16.9196 45.0084 16.7887 45.0053 16.6631 44.974C16.5376 44.9426 16.4205 44.8838 16.3204 44.8018C16.2203 44.7198 16.1397 44.6166 16.0843 44.4996C16.0289 44.3827 16.0001 44.2549 16 44.1255V19.6248C16.0001 19.4226 16.0703 19.2266 16.1985 19.0703C16.3268 18.914 16.5052 18.8069 16.7035 18.7672L25.4535 17.0172C25.5667 16.9946 25.6833 16.9946 25.7965 17.0172L34.375 18.7322L42.9535 17.0172C43.0804 16.9917 43.2113 16.9946 43.3369 17.0258C43.4624 17.0569 43.5796 17.1156 43.6798 17.1974V17.1974ZM33.5 20.3423L26.5 18.9422V41.6579L33.5 43.058V20.3423ZM35.25 43.058L42.25 41.6579V18.9422L35.25 20.3423V43.058ZM24.75 41.6579V18.9422L17.75 20.3423V43.058L24.75 41.6579Z" fill="white"/>
</svg>
