<svg width="61" height="61" viewBox="0 0 61 61" fill="none" xmlns="http://www.w3.org/2000/svg">
<circle cx="30.5" cy="30.5" r="30.5" fill="#C5789D"/>
<g clip-path="url(#clip0_748_192)">
<path d="M24.1597 32.3125C24.8807 32.3125 25.5722 32.0261 26.0821 31.5162C26.592 31.0063 26.8784 30.3148 26.8784 29.5938C26.8784 28.8727 26.592 28.1812 26.0821 27.6713C25.5722 27.1614 24.8807 26.875 24.1597 26.875C23.4386 26.875 22.7471 27.1614 22.2372 27.6713C21.7274 28.1812 21.4409 28.8727 21.4409 29.5938C21.4409 30.3148 21.7274 31.0063 22.2372 31.5162C22.7471 32.0261 23.4386 32.3125 24.1597 32.3125V32.3125Z" fill="white"/>
<path d="M41.3784 39.5625C41.3784 40.5239 40.9965 41.4459 40.3167 42.1258C39.6369 42.8056 38.7148 43.1875 37.7534 43.1875H19.6284C18.667 43.1875 17.745 42.8056 17.0652 42.1258C16.3853 41.4459 16.0034 40.5239 16.0034 39.5625V25.0625C16.0034 24.1017 16.3848 23.1802 17.0639 22.5005C17.7429 21.8208 18.664 21.4385 19.6248 21.4375C19.6248 20.4761 20.0067 19.5541 20.6865 18.8742C21.3663 18.1944 22.2884 17.8125 23.2498 17.8125H41.3748C42.3362 17.8125 43.2582 18.1944 43.9381 18.8742C44.6179 19.5541 44.9998 20.4761 44.9998 21.4375V35.9375C44.9998 36.8983 44.6184 37.8198 43.9393 38.4995C43.2603 39.1792 42.3392 39.5615 41.3784 39.5625ZM41.3748 19.625H23.2498C22.7691 19.625 22.3081 19.816 21.9682 20.1559C21.6283 20.4958 21.4373 20.9568 21.4373 21.4375H37.7534C38.7148 21.4375 39.6369 21.8194 40.3167 22.4992C40.9965 23.1791 41.3784 24.1011 41.3784 25.0625V37.75C41.8585 37.749 42.3186 37.5577 42.6577 37.2179C42.9968 36.878 43.1873 36.4176 43.1873 35.9375V21.4375C43.1873 20.9568 42.9963 20.4958 42.6564 20.1559C42.3165 19.816 41.8555 19.625 41.3748 19.625V19.625ZM19.6284 23.25C19.1477 23.25 18.6867 23.441 18.3468 23.7809C18.0069 24.1208 17.8159 24.5818 17.8159 25.0625V39.5625L22.6118 35.2959C22.7599 35.1483 22.9546 35.0564 23.1627 35.036C23.3708 35.0155 23.5796 35.0676 23.7537 35.1835L28.5749 38.3971L35.2993 31.6727C35.4337 31.5382 35.607 31.4493 35.7947 31.4187C35.9824 31.3882 36.175 31.4174 36.3451 31.5023L39.5659 35.0312V25.0625C39.5659 24.5818 39.375 24.1208 39.035 23.7809C38.6951 23.441 38.2341 23.25 37.7534 23.25H19.6284V23.25Z" fill="white"/>
</g>
<defs>
<clipPath id="clip0_748_192">
<rect width="29" height="29" fill="white" transform="translate(16 16)"/>
</clipPath>
</defs>
</svg>
