<svg width="61" height="61" viewBox="0 0 61 61" fill="none" xmlns="http://www.w3.org/2000/svg">
<circle cx="30.5" cy="30.5" r="30.5" fill="#C5789D"/>
<path d="M37.25 38.9375C37.25 40.8022 35.36 42.3125 33.0312 42.3125C30.7025 42.3125 28.8125 40.8022 28.8125 38.9375C28.8125 37.0728 30.7025 35.5625 33.0312 35.5625C35.36 35.5625 37.25 37.0728 37.25 38.9375Z" fill="white"/>
<path fill-rule="evenodd" clip-rule="evenodd" d="M37.25 22.0625V38.9375H35.5625V22.0625H37.25Z" fill="white"/>
<path d="M35.5625 21.7588C35.5627 21.3688 35.698 20.991 35.9454 20.6895C36.1927 20.388 36.5368 20.1815 36.9192 20.105L41.9817 19.0925C42.2265 19.0436 42.479 19.0496 42.7211 19.11C42.9633 19.1705 43.189 19.2839 43.382 19.442C43.5751 19.6002 43.7306 19.7992 43.8375 20.0248C43.9443 20.2503 43.9998 20.4967 44 20.7463V23.75L35.5625 25.4375V21.7588Z" fill="white"/>
<path fill-rule="evenodd" clip-rule="evenodd" d="M17 36.4062C17 36.1825 17.0889 35.9679 17.2471 35.8096C17.4054 35.6514 17.62 35.5625 17.8438 35.5625H23.75C23.9738 35.5625 24.1884 35.6514 24.3466 35.8096C24.5049 35.9679 24.5938 36.1825 24.5938 36.4062C24.5938 36.63 24.5049 36.8446 24.3466 37.0029C24.1884 37.1611 23.9738 37.25 23.75 37.25H17.8438C17.62 37.25 17.4054 37.1611 17.2471 37.0029C17.0889 36.8446 17 36.63 17 36.4062ZM17 29.6562C17 29.4325 17.0889 29.2179 17.2471 29.0596C17.4054 28.9014 17.62 28.8125 17.8438 28.8125H30.5C30.7238 28.8125 30.9384 28.9014 31.0966 29.0596C31.2549 29.2179 31.3438 29.4325 31.3438 29.6562C31.3438 29.88 31.2549 30.0946 31.0966 30.2529C30.9384 30.4111 30.7238 30.5 30.5 30.5H17.8438C17.62 30.5 17.4054 30.4111 17.2471 30.2529C17.0889 30.0946 17 29.88 17 29.6562ZM17 22.9062C17 22.6825 17.0889 22.4679 17.2471 22.3096C17.4054 22.1514 17.62 22.0625 17.8438 22.0625H30.5C30.7238 22.0625 30.9384 22.1514 31.0966 22.3096C31.2549 22.4679 31.3438 22.6825 31.3438 22.9062C31.3438 23.13 31.2549 23.3446 31.0966 23.5029C30.9384 23.6611 30.7238 23.75 30.5 23.75H17.8438C17.62 23.75 17.4054 23.6611 17.2471 23.5029C17.0889 23.3446 17 23.13 17 22.9062Z" fill="white"/>
</svg>
