<svg width="70" height="70" viewBox="0 0 70 70" fill="none" xmlns="http://www.w3.org/2000/svg">
<path d="M13.2441 46.549C14.6033 46.549 15.7051 45.4472 15.7051 44.088C15.7051 42.7289 14.6033 41.6271 13.2441 41.6271C11.885 41.6271 10.7832 42.7289 10.7832 44.088C10.7832 45.4472 11.885 46.549 13.2441 46.549Z" fill="#2A4D1F"/>
<path d="M24.9814 46.549C26.3406 46.549 27.4424 45.4472 27.4424 44.088C27.4424 42.7289 26.3406 41.6271 24.9814 41.6271C23.6223 41.6271 22.5205 42.7289 22.5205 44.088C22.5205 45.4472 23.6223 46.549 24.9814 46.549Z" fill="#2A4D1F"/>
<path d="M14.8139 52.1238C15.5806 53.5292 17.1305 54.7838 19.1145 54.7838C21.0986 54.7838 22.6474 53.5303 23.4141 52.1238C23.6208 51.7453 23.3474 51.3374 23.0422 51.5725C20.5124 53.5424 17.7036 53.5292 15.1836 51.5725C14.8795 51.3384 14.6061 51.7464 14.8139 52.1238" fill="#2A4D1F"/>
<path d="M59.4081 55.7255C61.9675 53.7884 64.1134 51.1492 64.657 48.0605C66.185 47.8242 67.8125 46.8486 67.8125 43.7697C67.8125 41.0583 66.8128 40.2467 65.9673 40.0455C65.8787 28.9231 63.1641 24.1806 50.9884 24.0658C38.7122 23.9488 35.478 28.8958 35.3609 40.1844C35.2322 40.2495 35.1112 40.3287 35 40.4206V40.1078C35 26.5497 26.1166 26.8034 26.1166 26.8034C26.1166 26.8034 25.4483 24.0625 18.5948 24.0625C7.98219 24.0625 2.1875 30.9859 2.1875 40.1078V67.8125H67.8125V59.9102C67.8125 57.8255 64.2163 56.432 59.4081 55.7255ZM6.44547 40.1527C13.0298 40.1527 23.7573 31.5886 23.7573 31.5886C23.7573 31.5886 27.8119 39.1486 31.7253 40.1527C31.7253 40.1527 33.623 40.5005 33.623 43.5028C33.623 47.1111 31.0931 47.7345 31.0931 47.7345C31.0614 53.1803 23.6272 58.6545 19.1166 58.6545C14.6005 58.6545 7.04266 53.1792 7.04266 47.7345C7.04266 47.7345 4.60469 47.1111 4.60469 43.5028C4.60469 40.6437 6.44547 40.1527 6.44547 40.1527V40.1527ZM34.4531 66.7417L3.28016 66.7188V59.9102C3.28016 58.8011 6.11188 57.3869 11.4953 56.6967C13.9989 58.5594 16.8864 59.7472 19.1166 59.7472C21.2734 59.7472 24.0603 58.6075 26.5092 56.8094C31.36 57.5334 34.4542 59.6531 34.4542 60.7031V66.7417H34.4531ZM34.9672 43.7697C34.9672 41.9847 35.4014 41.0791 36.2611 41.0791C36.318 41.0791 36.3748 41.0823 36.4328 41.0889C36.5466 41.743 36.68 42.2144 36.8386 42.5261C37.2302 43.2884 37.975 43.7052 38.0592 43.75L38.9758 44.2433L38.8292 43.1878C38.7145 42.1951 38.6768 41.195 38.7166 40.1964C39.0797 34.6992 39.4286 33.9664 40.623 33.9664C41.1655 33.9664 41.9103 34.1184 42.8542 34.3088C44.6928 34.6817 47.2095 35.1925 50.8572 35.1925C54.5048 35.1925 57.0227 34.6817 58.8602 34.3088C59.8041 34.1173 60.5489 33.9664 61.0925 33.9664C62.288 33.9664 62.6369 34.7014 62.9956 40.1953C63.0591 41.9202 62.8873 43.1758 62.8852 43.1878L62.7375 44.2455L63.6573 43.75C63.7416 43.7052 64.4842 43.2884 64.8769 42.5261C65.0377 42.2122 65.17 41.7506 65.2859 41.0889C66.2473 40.9839 66.7516 41.8688 66.7516 43.7697C66.7516 45.8544 65.9269 46.8869 64.1572 47.0192L63.7241 47.0509L63.6683 47.4928C62.8491 53.9886 54.2631 58.1077 50.8572 58.1077C47.4513 58.1077 38.8653 53.9886 38.0483 47.4928L37.9925 47.0509L37.5594 47.0192C35.7919 46.8858 34.9672 45.8544 34.9672 43.7697V43.7697ZM35 47.0597C35.5863 47.6569 36.3333 47.9478 37.0617 48.0605C37.6184 51.228 39.8584 53.923 42.5031 55.8731C38.1577 56.6169 35 57.9578 35 59.9102V47.0597V47.0597ZM66.7177 66.7188L35.5469 66.7198V60.7042C35.5469 58.8241 39.0184 57.4437 43.8156 56.77C46.3159 58.3177 48.9847 59.2014 50.8583 59.2014C52.7778 59.2014 55.5297 58.2695 58.0814 56.6519C63.4233 57.2852 66.7177 58.6294 66.7177 59.9102V66.7188Z" fill="#2A4D1F"/>
<path d="M44.8535 46.549C46.2127 46.549 47.3145 45.4472 47.3145 44.088C47.3145 42.7289 46.2127 41.6271 44.8535 41.6271C43.4944 41.6271 42.3926 42.7289 42.3926 44.088C42.3926 45.4472 43.4944 46.549 44.8535 46.549Z" fill="#2A4D1F"/>
<path d="M56.8828 46.549C58.242 46.549 59.3438 45.4472 59.3438 44.088C59.3438 42.7289 58.242 41.6271 56.8828 41.6271C55.5237 41.6271 54.4219 42.7289 54.4219 44.088C54.4219 45.4472 55.5237 46.549 56.8828 46.549Z" fill="#2A4D1F"/>
<path d="M46.5643 52.1238C47.331 53.5293 48.8819 54.7838 50.8671 54.7838C52.8523 54.7838 54.4021 53.5304 55.1699 52.1238C55.3766 51.7454 55.101 51.3374 54.798 51.5725C52.2671 53.5424 49.4551 53.5293 46.9351 51.5725C46.631 51.3385 46.3576 51.7464 46.5643 52.1238V52.1238ZM34.9968 28.4375C36.3104 27.2541 54.6591 17.6991 50.8988 7.74378C47.4043 -1.50825 36.0479 2.64253 34.9968 7.26363C33.553 2.33956 22.481 -1.33215 19.1013 7.74816C15.3388 17.8675 33.6854 26.9511 34.9968 28.4375Z" fill="#2A4D1F"/>
</svg>
