<svg width="70" height="70" viewBox="0 0 70 70" fill="none" xmlns="http://www.w3.org/2000/svg">
<path d="M10.5 17.5C8.64348 17.5 6.86301 18.2375 5.55025 19.5503C4.2375 20.863 3.5 22.6435 3.5 24.5V59.5C3.5 61.3565 4.2375 63.137 5.55025 64.4497C6.86301 65.7625 8.64348 66.5 10.5 66.5H59.5C61.3565 66.5 63.137 65.7625 64.4497 64.4497C65.7625 63.137 66.5 61.3565 66.5 59.5V24.5C66.5 22.6435 65.7625 20.863 64.4497 19.5503C63.137 18.2375 61.3565 17.5 59.5 17.5H10.5ZM10.5 56L22.75 40.25L31.5 50.75L43.75 35L59.5 56H10.5ZM56 7C57.8565 7 59.637 7.7375 60.9497 9.05025C62.2625 10.363 63 12.1435 63 14H7C7 12.1435 7.7375 10.363 9.05025 9.05025C10.363 7.7375 12.1435 7 14 7H56Z" fill="#2A4D1F"/>
</svg>
