<svg width="70" height="70" viewBox="0 0 70 70" fill="none" xmlns="http://www.w3.org/2000/svg">
<g clip-path="url(#clip0_690_66)">
<path d="M34.9998 4.375C15.6678 4.375 -0.000203567 17.1035 -0.000203567 32.8125C-0.000203567 39.3203 2.7205 45.2812 7.23222 50.0801C5.19511 55.4668 0.956828 60.0332 0.888468 60.0879C-0.0138754 61.0449 -0.259969 62.4395 0.259562 63.6426C0.779093 64.8457 1.96855 65.625 3.28105 65.625C11.6892 65.625 18.3201 62.1113 22.2986 59.2949C26.2498 60.5391 30.5154 61.25 34.9998 61.25C54.3318 61.25 69.9998 48.5215 69.9998 32.8125C69.9998 17.1035 54.3318 4.375 34.9998 4.375ZM34.9998 54.6875C31.3494 54.6875 27.74 54.127 24.281 53.0332L21.1775 52.0488L18.5115 53.9355C16.5564 55.3164 13.8767 56.8613 10.6502 57.9004C11.6482 56.2461 12.6189 54.3867 13.3709 52.4043L14.8201 48.5625L12.0037 45.582C9.52909 42.9434 6.5623 38.582 6.5623 32.8125C6.5623 20.7539 19.3182 10.9375 34.9998 10.9375C50.6814 10.9375 63.4373 20.7539 63.4373 32.8125C63.4373 44.8711 50.6814 54.6875 34.9998 54.6875Z" fill="#2A4D1F"/>
</g>
<defs>
<clipPath id="clip0_690_66">
<rect width="70" height="70" fill="white"/>
</clipPath>
</defs>
</svg>
