<svg width="61" height="61" viewBox="0 0 61 61" fill="none" xmlns="http://www.w3.org/2000/svg">
<circle cx="30.5" cy="30.5" r="30.5" fill="#C5789D"/>
<path fill-rule="evenodd" clip-rule="evenodd" d="M36.4062 19.6703C36.0738 19.6703 35.7447 19.7349 35.4376 19.8605C35.1305 19.9861 34.8514 20.1702 34.6164 20.4023C34.3813 20.6343 34.1949 20.9098 34.0677 21.2131C33.9405 21.5163 33.875 21.8413 33.875 22.1695C33.875 22.4976 33.9405 22.8226 34.0677 23.1258C34.1949 23.4291 34.3813 23.7046 34.6164 23.9366C34.8514 24.1687 35.1305 24.3528 35.4376 24.4784C35.7447 24.604 36.0738 24.6686 36.4062 24.6686C37.0776 24.6686 37.7214 24.4053 38.1961 23.9366C38.6708 23.4679 38.9375 22.8323 38.9375 22.1695C38.9375 21.5066 38.6708 20.871 38.1961 20.4023C37.7214 19.9336 37.0776 19.6703 36.4062 19.6703ZM32.2719 21.3364C32.4655 20.3948 32.9829 19.5483 33.7364 18.9402C34.4899 18.3322 35.4331 18 36.4062 18C37.3794 18 38.3226 18.3322 39.0761 18.9402C39.8296 19.5483 40.347 20.3948 40.5406 21.3364H44V23.0025H40.5406C40.347 23.9441 39.8296 24.7906 39.0761 25.3987C38.3226 26.0067 37.3794 26.3389 36.4062 26.3389C35.4331 26.3389 34.4899 26.0067 33.7364 25.3987C32.9829 24.7906 32.4655 23.9441 32.2719 23.0025H17V21.3364H32.2719ZM24.5938 28.0008C23.9224 28.0008 23.2786 28.2641 22.8039 28.7328C22.3292 29.2015 22.0625 29.8372 22.0625 30.5C22.0625 31.1628 22.3292 31.7985 22.8039 32.2672C23.2786 32.7359 23.9224 32.9992 24.5938 32.9992C25.2651 32.9992 25.9089 32.7359 26.3836 32.2672C26.8583 31.7985 27.125 31.1628 27.125 30.5C27.125 29.8372 26.8583 29.2015 26.3836 28.7328C25.9089 28.2641 25.2651 28.0008 24.5938 28.0008ZM20.4594 29.6669C20.653 28.7254 21.1704 27.8788 21.9239 27.2708C22.6774 26.6627 23.6206 26.3305 24.5938 26.3305C25.5669 26.3305 26.5101 26.6627 27.2636 27.2708C28.0171 27.8788 28.5345 28.7254 28.7281 29.6669H44V31.3331H28.7281C28.5345 32.2746 28.0171 33.1212 27.2636 33.7292C26.5101 34.3373 25.5669 34.6695 24.5938 34.6695C23.6206 34.6695 22.6774 34.3373 21.9239 33.7292C21.1704 33.1212 20.653 32.2746 20.4594 31.3331H17V29.6669H20.4594ZM36.4062 36.3314C35.7349 36.3314 35.0911 36.5947 34.6164 37.0634C34.1417 37.5321 33.875 38.1677 33.875 38.8305C33.875 39.4934 34.1417 40.129 34.6164 40.5977C35.0911 41.0664 35.7349 41.3297 36.4062 41.3297C37.0776 41.3297 37.7214 41.0664 38.1961 40.5977C38.6708 40.129 38.9375 39.4934 38.9375 38.8305C38.9375 38.1677 38.6708 37.5321 38.1961 37.0634C37.7214 36.5947 37.0776 36.3314 36.4062 36.3314ZM32.2719 37.9975C32.4655 37.0559 32.9829 36.2094 33.7364 35.6013C34.4899 34.9933 35.4331 34.6611 36.4062 34.6611C37.3794 34.6611 38.3226 34.9933 39.0761 35.6013C39.8296 36.2094 40.347 37.0559 40.5406 37.9975H44V39.6636H40.5406C40.347 40.6052 39.8296 41.4517 39.0761 42.0598C38.3226 42.6678 37.3794 43 36.4062 43C35.4331 43 34.4899 42.6678 33.7364 42.0598C32.9829 41.4517 32.4655 40.6052 32.2719 39.6636H17V37.9975H32.2719Z" fill="white"/>
</svg>
