<svg width="61" height="61" viewBox="0 0 61 61" fill="none" xmlns="http://www.w3.org/2000/svg">
<circle cx="30.5" cy="30.5" r="30.5" fill="#C5789D"/>
<g clip-path="url(#clip0_747_186)">
<path fill-rule="evenodd" clip-rule="evenodd" d="M19.5 20.5C19.5 19.5717 19.8687 18.6815 20.5251 18.0251C21.1815 17.3687 22.0717 17 23 17H37C37.9283 17 38.8185 17.3687 39.4749 18.0251C40.1313 18.6815 40.5 19.5717 40.5 20.5V22.4827L42.1467 23.3612C42.7066 23.6598 43.1748 24.1049 43.5012 24.6489C43.8277 25.193 44.0001 25.8155 44 26.45V41.5C44 42.4283 43.6313 43.3185 42.9749 43.9749C42.3185 44.6313 41.4283 45 40.5 45H19.5C18.5717 45 17.6815 44.6313 17.0251 43.9749C16.3687 43.3185 16 42.4283 16 41.5V26.45C15.9999 25.8155 16.1723 25.193 16.4988 24.6489C16.8252 24.1049 17.2934 23.6598 17.8533 23.3612L19.5 22.4827V20.5ZM19.5 24.4673L18.6775 24.9048C18.3973 25.054 18.1629 25.2766 17.9995 25.5488C17.8362 25.821 17.7499 26.1325 17.75 26.45V27.8798L19.5 28.9297V24.4673V24.4673ZM21.25 29.9797L27.8125 33.9172L30 32.6047L32.1875 33.9172L38.75 29.9797V20.5C38.75 20.0359 38.5656 19.5908 38.2374 19.2626C37.9092 18.9344 37.4641 18.75 37 18.75H23C22.5359 18.75 22.0908 18.9344 21.7626 19.2626C21.4344 19.5908 21.25 20.0359 21.25 20.5V29.9797ZM40.5 28.9297L42.25 27.8798V26.45C42.2498 26.1328 42.1634 25.8217 42 25.5498C41.8366 25.2779 41.6025 25.0556 41.3225 24.9065L40.5 24.4673V28.9297ZM30 22.2185C32.912 19.2908 40.1937 24.413 30 31C19.8063 24.413 27.088 19.2925 30 22.2185ZM42.25 29.9202L33.8885 34.9375L42.25 39.9547V29.9202ZM42.1888 41.9602L30 34.6435L17.8112 41.9585C17.9119 42.3293 18.1318 42.6567 18.437 42.8901C18.7422 43.1235 19.1158 43.25 19.5 43.25H40.5C40.8842 43.25 41.2578 43.1235 41.563 42.8901C41.8682 42.6567 42.0881 42.3293 42.1888 41.9585V41.9602ZM17.75 39.953L26.1115 34.9357L17.75 29.9202V39.9547V39.953Z" fill="white"/>
</g>
<defs>
<clipPath id="clip0_747_186">
<rect width="28" height="28" fill="white" transform="translate(16 17)"/>
</clipPath>
</defs>
</svg>
