<svg width="61" height="61" viewBox="0 0 61 61" fill="none" xmlns="http://www.w3.org/2000/svg">
<circle cx="30.5" cy="30.5" r="30.5" fill="#C5789D"/>
<path fill-rule="evenodd" clip-rule="evenodd" d="M37.5622 18.4545C39.1222 16.8761 43.024 19.6397 37.5622 23.1917C32.1004 19.6397 36.0022 16.8761 37.5622 18.4545ZM32.8747 25.3849C32.8747 26.8537 32.2821 28.2624 31.2272 29.3011C30.1724 30.3397 28.7417 30.9232 27.2498 30.9232C25.758 30.9232 24.3273 30.3397 23.2724 29.3011C22.2175 28.2624 21.6249 26.8537 21.6249 25.3849C21.6249 23.916 22.2175 22.5073 23.2724 21.4686C24.3273 20.43 25.758 19.8465 27.2498 19.8465C28.7417 19.8465 30.1724 20.43 31.2272 21.4686C32.2821 22.5073 32.8747 23.916 32.8747 25.3849V25.3849ZM16 40.1539C16 42 17.875 42 17.875 42H36.6247C36.6247 42 38.4997 42 38.4997 40.1539C38.4997 38.3077 36.6247 32.7694 27.2498 32.7694C17.875 32.7694 16 38.3077 16 40.1539ZM41.3121 25.2187C43.9127 22.588 50.4151 27.1941 41.3121 33.1146C32.211 27.1941 38.7115 22.588 41.3121 25.2206V25.2187ZM44.1246 20.1511C45.1652 19.0988 47.7658 20.9412 44.1246 23.3098C40.4834 20.9412 43.084 19.0988 44.1246 20.1529V20.1511Z" fill="white"/>
</svg>
