<svg width="61" height="61" viewBox="0 0 61 61" fill="none" xmlns="http://www.w3.org/2000/svg">
<circle cx="30.5" cy="30.5" r="30.5" fill="#C5789D"/>
<g clip-path="url(#clip0_747_190)">
<path d="M30.9995 30.9685C33.9115 28.0408 41.1933 33.163 30.9995 39.75C20.8058 33.163 28.0875 28.0425 30.9995 30.9685Z" fill="white"/>
<path d="M23.5625 17C23.2908 17 23.0229 17.0633 22.7799 17.1848C22.5369 17.3063 22.3255 17.4827 22.1625 17.7L17.175 24.35C17.0614 24.5015 17 24.6857 17 24.875V43.25C17 43.7141 17.1844 44.1592 17.5126 44.4874C17.8408 44.8156 18.2859 45 18.75 45H43.25C43.7141 45 44.1592 44.8156 44.4874 44.4874C44.8156 44.1592 45 43.7141 45 43.25V24.875C45 24.6857 44.9386 24.5015 44.825 24.35L39.8375 17.7C39.6745 17.4827 39.4631 17.3063 39.2201 17.1848C38.9771 17.0633 38.7092 17 38.4375 17H23.5625ZM23.5625 18.75H30.125V24H19.625L23.5625 18.75ZM31.875 24V18.75H38.4375L42.375 24H31.875ZM43.25 25.75V43.25H18.75V25.75H43.25Z" fill="white"/>
</g>
<defs>
<clipPath id="clip0_747_190">
<rect width="28" height="28" fill="white" transform="translate(17 17)"/>
</clipPath>
</defs>
</svg>
