<svg width="61" height="61" viewBox="0 0 61 61" fill="none" xmlns="http://www.w3.org/2000/svg">
<circle cx="30.5" cy="30.5" r="30.5" fill="#C5789D"/>
<path d="M32.4372 24.75C32.4372 26.275 31.8249 27.7375 30.7348 28.8159C29.6448 29.8942 28.1664 30.5 26.6248 30.5C25.0833 30.5 23.6049 29.8942 22.5148 28.8159C21.4248 27.7375 20.8124 26.275 20.8124 24.75C20.8124 23.225 21.4248 21.7625 22.5148 20.6841C23.6049 19.6058 25.0833 19 26.6248 19C28.1664 19 29.6448 19.6058 30.7348 20.6841C31.8249 21.7625 32.4372 23.225 32.4372 24.75V24.75ZM15 40.0833C15 42 16.9375 42 16.9375 42H36.3122C36.3122 42 38.2497 42 38.2497 40.0833C38.2497 38.1667 36.3122 32.4167 26.6248 32.4167C16.9375 32.4167 15 38.1667 15 40.0833ZM41.1559 24.5775C43.8431 21.8462 50.5623 26.6283 41.1559 32.7751C31.7514 26.6283 38.4686 21.8462 41.1559 24.5794V24.5775Z" fill="white"/>
</svg>
