<svg width="61" height="61" viewBox="0 0 61 61" fill="none" xmlns="http://www.w3.org/2000/svg">
<circle cx="30.5" cy="30.5" r="30.5" fill="#C5789D"/>
<path d="M26.875 30.5C28.3171 30.5 29.7002 29.9271 30.7199 28.9074C31.7396 27.8877 32.3125 26.5046 32.3125 25.0625C32.3125 23.6204 31.7396 22.2373 30.7199 21.2176C29.7002 20.1979 28.3171 19.625 26.875 19.625C25.4329 19.625 24.0498 20.1979 23.0301 21.2176C22.0104 22.2373 21.4375 23.6204 21.4375 25.0625C21.4375 26.5046 22.0104 27.8877 23.0301 28.9074C24.0498 29.9271 25.4329 30.5 26.875 30.5V30.5ZM17.8125 41.375C17.8125 41.375 16 41.375 16 39.5625C16 37.75 17.8125 32.3125 26.875 32.3125C35.9375 32.3125 37.75 37.75 37.75 39.5625C37.75 41.375 35.9375 41.375 35.9375 41.375H17.8125ZM35.9375 22.3438C35.9375 22.1034 36.033 21.8729 36.2029 21.7029C36.3729 21.533 36.6034 21.4375 36.8438 21.4375H44.0938C44.3341 21.4375 44.5646 21.533 44.7346 21.7029C44.9045 21.8729 45 22.1034 45 22.3438C45 22.5841 44.9045 22.8146 44.7346 22.9846C44.5646 23.1545 44.3341 23.25 44.0938 23.25H36.8438C36.6034 23.25 36.3729 23.1545 36.2029 22.9846C36.033 22.8146 35.9375 22.5841 35.9375 22.3438ZM36.8438 26.875C36.6034 26.875 36.3729 26.9705 36.2029 27.1404C36.033 27.3104 35.9375 27.5409 35.9375 27.7812C35.9375 28.0216 36.033 28.2521 36.2029 28.4221C36.3729 28.592 36.6034 28.6875 36.8438 28.6875H44.0938C44.3341 28.6875 44.5646 28.592 44.7346 28.4221C44.9045 28.2521 45 28.0216 45 27.7812C45 27.5409 44.9045 27.3104 44.7346 27.1404C44.5646 26.9705 44.3341 26.875 44.0938 26.875H36.8438ZM40.4688 32.3125C40.2284 32.3125 39.9979 32.408 39.8279 32.5779C39.658 32.7479 39.5625 32.9784 39.5625 33.2188C39.5625 33.4591 39.658 33.6896 39.8279 33.8596C39.9979 34.0295 40.2284 34.125 40.4688 34.125H44.0938C44.3341 34.125 44.5646 34.0295 44.7346 33.8596C44.9045 33.6896 45 33.4591 45 33.2188C45 32.9784 44.9045 32.7479 44.7346 32.5779C44.5646 32.408 44.3341 32.3125 44.0938 32.3125H40.4688ZM40.4688 37.75C40.2284 37.75 39.9979 37.8455 39.8279 38.0154C39.658 38.1854 39.5625 38.4159 39.5625 38.6562C39.5625 38.8966 39.658 39.1271 39.8279 39.2971C39.9979 39.467 40.2284 39.5625 40.4688 39.5625H44.0938C44.3341 39.5625 44.5646 39.467 44.7346 39.2971C44.9045 39.1271 45 38.8966 45 38.6562C45 38.4159 44.9045 38.1854 44.7346 38.0154C44.5646 37.8455 44.3341 37.75 44.0938 37.75H40.4688Z" fill="white"/>
</svg>
