<svg width="61" height="61" viewBox="0 0 61 61" fill="none" xmlns="http://www.w3.org/2000/svg">
<circle cx="30.5" cy="30.5" r="30.5" fill="#C5789D"/>
<g clip-path="url(#clip0_749_196)">
<path fill-rule="evenodd" clip-rule="evenodd" d="M34.75 39.4375C34.75 39.6861 34.6512 39.9246 34.4754 40.1004C34.2996 40.2762 34.0611 40.375 33.8125 40.375H18.8125C18.5639 40.375 18.3254 40.2762 18.1496 40.1004C17.9738 39.9246 17.875 39.6861 17.875 39.4375V22.5625C17.875 22.3139 17.9738 22.0754 18.1496 21.8996C18.3254 21.7238 18.5639 21.625 18.8125 21.625H33.8125C34.0611 21.625 34.2996 21.7238 34.4754 21.8996C34.6512 22.0754 34.75 22.3139 34.75 22.5625V26.3125C34.75 26.5611 34.8488 26.7996 35.0246 26.9754C35.2004 27.1512 35.4389 27.25 35.6875 27.25C35.9361 27.25 36.1746 27.1512 36.3504 26.9754C36.5262 26.7996 36.625 26.5611 36.625 26.3125V22.5625C36.625 21.8166 36.3287 21.1012 35.8012 20.5738C35.2738 20.0463 34.5584 19.75 33.8125 19.75H18.8125C18.0666 19.75 17.3512 20.0463 16.8238 20.5738C16.2963 21.1012 16 21.8166 16 22.5625V39.4375C16 40.1834 16.2963 40.8988 16.8238 41.4262C17.3512 41.9537 18.0666 42.25 18.8125 42.25H33.8125C34.5584 42.25 35.2738 41.9537 35.8012 41.4262C36.3287 40.8988 36.625 40.1834 36.625 39.4375V35.6875C36.625 35.4389 36.5262 35.2004 36.3504 35.0246C36.1746 34.8488 35.9361 34.75 35.6875 34.75C35.4389 34.75 35.2004 34.8488 35.0246 35.0246C34.8488 35.2004 34.75 35.4389 34.75 35.6875V39.4375Z" fill="white"/>
<path fill-rule="evenodd" clip-rule="evenodd" d="M45.7262 31.6637C45.8136 31.5766 45.8828 31.4732 45.9301 31.3593C45.9773 31.2454 46.0017 31.1233 46.0017 31C46.0017 30.8767 45.9773 30.7545 45.9301 30.6407C45.8828 30.5268 45.8136 30.4233 45.7262 30.3362L40.1012 24.7112C39.9252 24.5352 39.6865 24.4363 39.4375 24.4363C39.1885 24.4363 38.9498 24.5352 38.7737 24.7112C38.5977 24.8873 38.4988 25.126 38.4988 25.375C38.4988 25.6239 38.5977 25.8627 38.7737 26.0387L42.7994 30.0625H26.3125C26.0639 30.0625 25.8254 30.1612 25.6496 30.3371C25.4738 30.5129 25.375 30.7513 25.375 31C25.375 31.2486 25.4738 31.4871 25.6496 31.6629C25.8254 31.8387 26.0639 31.9375 26.3125 31.9375H42.7994L38.7737 35.9612C38.5977 36.1373 38.4988 36.376 38.4988 36.625C38.4988 36.8739 38.5977 37.1127 38.7737 37.2887C38.9498 37.4648 39.1885 37.5636 39.4375 37.5636C39.6865 37.5636 39.9252 37.4648 40.1012 37.2887L45.7262 31.6637V31.6637Z" fill="white"/>
</g>
<defs>
<clipPath id="clip0_749_196">
<rect width="30" height="30" fill="white" transform="translate(16 16)"/>
</clipPath>
</defs>
</svg>
