<svg width="61" height="61" viewBox="0 0 61 61" fill="none" xmlns="http://www.w3.org/2000/svg">
<circle cx="30.5" cy="30.5" r="30.5" fill="#C5789D"/>
<path d="M30.5 16.9375C31.5277 16.9375 32.5133 17.3458 33.24 18.0725C33.9667 18.7992 34.375 19.7848 34.375 20.8125V28.5625H26.625V20.8125C26.625 19.7848 27.0333 18.7992 27.76 18.0725C28.4867 17.3458 29.4723 16.9375 30.5 16.9375V16.9375ZM36.3125 28.5625V20.8125C36.3125 19.2709 35.7001 17.7925 34.6101 16.7024C33.52 15.6124 32.0416 15 30.5 15C28.9584 15 27.48 15.6124 26.3899 16.7024C25.2999 17.7925 24.6875 19.2709 24.6875 20.8125V28.5625C23.6598 28.5625 22.6742 28.9708 21.9475 29.6975C21.2208 30.4242 20.8125 31.4098 20.8125 32.4375V42.125C20.8125 43.1527 21.2208 44.1383 21.9475 44.865C22.6742 45.5917 23.6598 46 24.6875 46H36.3125C37.3402 46 38.3258 45.5917 39.0525 44.865C39.7792 44.1383 40.1875 43.1527 40.1875 42.125V32.4375C40.1875 31.4098 39.7792 30.4242 39.0525 29.6975C38.3258 28.9708 37.3402 28.5625 36.3125 28.5625V28.5625ZM24.6875 30.5H36.3125C36.8264 30.5 37.3192 30.7041 37.6825 31.0675C38.0459 31.4308 38.25 31.9236 38.25 32.4375V42.125C38.25 42.6389 38.0459 43.1317 37.6825 43.495C37.3192 43.8584 36.8264 44.0625 36.3125 44.0625H24.6875C24.1736 44.0625 23.6808 43.8584 23.3175 43.495C22.9541 43.1317 22.75 42.6389 22.75 42.125V32.4375C22.75 31.9236 22.9541 31.4308 23.3175 31.0675C23.6808 30.7041 24.1736 30.5 24.6875 30.5Z" fill="white"/>
</svg>
