<svg width="61" height="61" viewBox="0 0 61 61" fill="none" xmlns="http://www.w3.org/2000/svg">
<circle cx="30.5" cy="30.5" r="30.5" fill="#C5789D"/>
<path d="M31.5004 28.4004C34.9324 24.9498 43.5145 30.9868 31.5004 38.75C19.4864 30.9868 28.0684 24.9498 31.5004 28.4004Z" fill="white"/>
<path d="M32.9578 17.0937C32.571 16.7071 32.0465 16.4899 31.4996 16.4899C30.9527 16.4899 30.4282 16.7071 30.0414 17.0937L16.332 30.8011C16.1386 30.9948 16.0301 31.2573 16.0303 31.5309C16.0305 31.8046 16.1394 32.067 16.333 32.2603C16.5266 32.4537 16.7892 32.5622 17.0628 32.562C17.3365 32.5618 17.5989 32.4529 17.7922 32.2593L19.1246 30.9269V41.8437C19.1246 42.6643 19.4505 43.4512 20.0307 44.0314C20.6109 44.6115 21.3978 44.9375 22.2183 44.9375H40.7808C41.6014 44.9375 42.3883 44.6115 42.9685 44.0314C43.5487 43.4512 43.8746 42.6643 43.8746 41.8437V30.9269L45.207 32.2593C45.4003 32.4529 45.6627 32.5618 45.9364 32.562C46.21 32.5622 46.4726 32.4537 46.6662 32.2603C46.8598 32.067 46.9687 31.8046 46.9689 31.5309C46.9691 31.2573 46.8606 30.9948 46.6672 30.8011L41.8121 25.9481V19.1562C41.8121 18.8827 41.7034 18.6204 41.5101 18.427C41.3167 18.2336 41.0544 18.125 40.7808 18.125H38.7183C38.4448 18.125 38.1825 18.2336 37.9891 18.427C37.7957 18.6204 37.6871 18.8827 37.6871 19.1562V21.8231L32.9578 17.0937ZM41.8121 28.8644V41.8437C41.8121 42.1172 41.7034 42.3795 41.5101 42.5729C41.3167 42.7663 41.0544 42.875 40.7808 42.875H22.2183C21.9448 42.875 21.6825 42.7663 21.4891 42.5729C21.2957 42.3795 21.1871 42.1172 21.1871 41.8437V28.8644L31.4996 18.5519L41.8121 28.8644Z" fill="white"/>
</svg>
