<svg width="61" height="61" viewBox="0 0 61 61" fill="none" xmlns="http://www.w3.org/2000/svg">
<circle cx="30.5" cy="30.5" r="30.5" fill="#C5789D"/>
<path fill-rule="evenodd" clip-rule="evenodd" d="M21.7447 38.7144C21.7718 38.43 21.7361 38.1432 21.6399 37.8743C21.5438 37.6054 21.3897 37.361 21.1886 37.1587C19.1349 35.0921 17.9375 32.4468 17.9375 29.5956C17.9375 23.396 23.7577 17.9422 31.5 17.9422C39.2423 17.9422 45.0625 23.396 45.0625 29.5956C45.0625 35.7972 39.2423 41.249 31.5 41.249C30.1343 41.251 28.7742 41.0734 27.4545 40.7207C26.9933 40.5968 26.5028 40.648 26.0769 40.8644C25.3271 41.2451 23.6744 41.9715 20.9736 42.5989C21.3504 41.3308 21.6085 40.0304 21.7447 38.7144V38.7144ZM20.1947 44.7508L20.2334 44.7431C23.7791 44.038 25.9452 43.1077 26.9527 42.5969C28.436 42.9935 29.9648 43.1933 31.5 43.1912C40.0599 43.1912 47 37.1043 47 29.5956C47 22.087 40.0599 16 31.5 16C22.9401 16 16 22.087 16 29.5956C16 33.0139 17.4396 36.1409 19.8169 38.5299C19.6506 40.0644 19.3099 41.5749 18.8016 43.032L18.7958 43.0533C18.6514 43.4707 18.4937 43.8833 18.3231 44.2905C18.17 44.6518 18.4664 45.0558 18.852 44.9936C19.3008 44.92 19.7485 44.8391 20.1947 44.7508V44.7508ZM31.5 25.6976C34.724 22.3744 42.7859 28.1894 31.5 35.6651C20.2141 28.1875 28.276 22.3744 31.5 25.6976Z" fill="white"/>
</svg>
