<svg width="61" height="61" viewBox="0 0 61 61" fill="none" xmlns="http://www.w3.org/2000/svg">
<circle cx="30.5" cy="30.5" r="30.5" fill="#C5789D"/>
<g clip-path="url(#clip0_747_139)">
<path fill-rule="evenodd" clip-rule="evenodd" d="M36.625 39.7812C36.625 40.0548 36.5164 40.3171 36.323 40.5105C36.1296 40.7039 35.8673 40.8125 35.5938 40.8125H19.0938C18.8202 40.8125 18.5579 40.7039 18.3645 40.5105C18.1711 40.3171 18.0625 40.0548 18.0625 39.7812V21.2188C18.0625 20.9452 18.1711 20.6829 18.3645 20.4895C18.5579 20.2961 18.8202 20.1875 19.0938 20.1875H35.5938C35.8673 20.1875 36.1296 20.2961 36.323 20.4895C36.5164 20.6829 36.625 20.9452 36.625 21.2188V25.3438C36.625 25.6173 36.7336 25.8796 36.927 26.073C37.1204 26.2664 37.3827 26.375 37.6562 26.375C37.9298 26.375 38.1921 26.2664 38.3855 26.073C38.5789 25.8796 38.6875 25.6173 38.6875 25.3438V21.2188C38.6875 20.3982 38.3616 19.6113 37.7814 19.0311C37.2012 18.4509 36.4143 18.125 35.5938 18.125H19.0938C18.2732 18.125 17.4863 18.4509 16.9061 19.0311C16.3259 19.6113 16 20.3982 16 21.2188V39.7812C16 40.6018 16.3259 41.3887 16.9061 41.9689C17.4863 42.5491 18.2732 42.875 19.0938 42.875H35.5938C36.4143 42.875 37.2012 42.5491 37.7814 41.9689C38.3616 41.3887 38.6875 40.6018 38.6875 39.7812V35.6562C38.6875 35.3827 38.5789 35.1204 38.3855 34.927C38.1921 34.7336 37.9298 34.625 37.6562 34.625C37.3827 34.625 37.1204 34.7336 36.927 34.927C36.7336 35.1204 36.625 35.3827 36.625 35.6562V39.7812Z" fill="white"/>
<path fill-rule="evenodd" clip-rule="evenodd" d="M48.6989 31.2301C48.7949 31.1343 48.8711 31.0205 48.9231 30.8952C48.9751 30.7699 49.0018 30.6356 49.0018 30.5C49.0018 30.3643 48.9751 30.23 48.9231 30.1047C48.8711 29.9794 48.7949 29.8656 48.6989 29.7698L42.5114 23.5823C42.3177 23.3887 42.0551 23.2799 41.7812 23.2799C41.5074 23.2799 41.2448 23.3887 41.0511 23.5823C40.8575 23.776 40.7487 24.0386 40.7487 24.3125C40.7487 24.5863 40.8575 24.8489 41.0511 25.0426L45.4793 29.4687H27.3438C27.0702 29.4687 26.8079 29.5774 26.6145 29.7708C26.4211 29.9642 26.3125 30.2265 26.3125 30.5C26.3125 30.7735 26.4211 31.0358 26.6145 31.2292C26.8079 31.4226 27.0702 31.5312 27.3438 31.5312H45.4793L41.0511 35.9573C40.8575 36.151 40.7487 36.4136 40.7487 36.6875C40.7487 36.9613 40.8575 37.2239 41.0511 37.4176C41.2448 37.6112 41.5074 37.72 41.7812 37.72C42.0551 37.72 42.3177 37.6112 42.5114 37.4176L48.6989 31.2301V31.2301Z" fill="white"/>
</g>
<defs>
<clipPath id="clip0_747_139">
<rect width="33" height="33" fill="white" transform="translate(16 14)"/>
</clipPath>
</defs>
</svg>
