<svg width="61" height="61" viewBox="0 0 61 61" fill="none" xmlns="http://www.w3.org/2000/svg">
<circle cx="30.5" cy="30.5" r="30.5" fill="#C5789D"/>
<g clip-path="url(#clip0_747_144)">
<path fill-rule="evenodd" clip-rule="evenodd" d="M23.75 17.8438C23.75 17.62 23.6611 17.4054 23.5029 17.2471C23.3446 17.0889 23.13 17 22.9062 17C22.6825 17 22.4679 17.0889 22.3096 17.2471C22.1514 17.4054 22.0625 17.62 22.0625 17.8438V18.6875H20.375C19.4799 18.6875 18.6214 19.0431 17.9885 19.676C17.3556 20.3089 17 21.1674 17 22.0625V40.625C17 41.5201 17.3556 42.3785 17.9885 43.0115C18.6214 43.6444 19.4799 44 20.375 44H40.625C41.5201 44 42.3785 43.6444 43.0115 43.0115C43.6444 42.3785 44 41.5201 44 40.625V22.0625C44 21.1674 43.6444 20.3089 43.0115 19.676C42.3785 19.0431 41.5201 18.6875 40.625 18.6875H38.9375V17.8438C38.9375 17.62 38.8486 17.4054 38.6904 17.2471C38.5321 17.0889 38.3175 17 38.0938 17C37.87 17 37.6554 17.0889 37.4971 17.2471C37.3389 17.4054 37.25 17.62 37.25 17.8438V18.6875H23.75V17.8438ZM18.6875 22.0625C18.6875 21.6149 18.8653 21.1857 19.1818 20.8693C19.4982 20.5528 19.9274 20.375 20.375 20.375H40.625C41.0726 20.375 41.5018 20.5528 41.8182 20.8693C42.1347 21.1857 42.3125 21.6149 42.3125 22.0625V40.625C42.3125 41.0726 42.1347 41.5018 41.8182 41.8182C41.5018 42.1347 41.0726 42.3125 40.625 42.3125H20.375C19.9274 42.3125 19.4982 42.1347 19.1818 41.8182C18.8653 41.5018 18.6875 41.0726 18.6875 40.625V22.0625ZM22.0625 22.9062C21.8387 22.9062 21.6241 22.9951 21.4659 23.1534C21.3076 23.3116 21.2188 23.5262 21.2188 23.75V25.4375C21.2188 25.6613 21.3076 25.8759 21.4659 26.0341C21.6241 26.1924 21.8387 26.2812 22.0625 26.2812H38.9375C39.1613 26.2812 39.3759 26.1924 39.5341 26.0341C39.6924 25.8759 39.7812 25.6613 39.7812 25.4375V23.75C39.7812 23.5262 39.6924 23.3116 39.5341 23.1534C39.3759 22.9951 39.1613 22.9062 38.9375 22.9062H22.0625ZM30.5 30.4882C33.308 27.6009 40.3297 32.6533 30.5 39.1484C20.6703 32.6516 27.692 27.6009 30.5 30.4882Z" fill="white"/>
</g>
<defs>
<clipPath id="clip0_747_144">
<rect width="27" height="27" fill="white" transform="translate(17 17)"/>
</clipPath>
</defs>
</svg>
