<svg width="61" height="61" viewBox="0 0 61 61" fill="none" xmlns="http://www.w3.org/2000/svg">
<circle cx="30.5" cy="30.5" r="30.5" fill="#C5789D"/>
<g clip-path="url(#clip0_747_152)">
<g clip-path="url(#clip1_747_152)">
<path d="M28.3689 18.2721C28.7941 16.5746 31.2039 16.5746 31.6309 18.2721L31.7551 18.7726C31.8278 19.0635 31.9771 19.3296 32.1873 19.5434C32.3975 19.7571 32.6611 19.9107 32.9508 19.9882C33.2404 20.0657 33.5455 20.0643 33.8344 19.9841C34.1232 19.9039 34.3854 19.7478 34.5936 19.5321L34.9524 19.1629C36.1686 17.9046 38.2564 19.1104 37.7751 20.7921L37.6351 21.2891C37.5527 21.5773 37.5489 21.8822 37.624 22.1723C37.6991 22.4625 37.8505 22.7272 38.0624 22.9391C38.2743 23.151 38.5391 23.3024 38.8292 23.3775C39.1193 23.4527 39.4243 23.4488 39.7124 23.3664L40.2076 23.2246C41.8876 22.7434 43.0951 24.8311 41.8369 26.0474L41.4676 26.4061C41.252 26.6144 41.0959 26.8766 41.0157 27.1654C40.9355 27.4543 40.9341 27.7594 41.0116 28.049C41.0891 28.3387 41.2427 28.6023 41.4564 28.8125C41.6702 29.0227 41.9363 29.172 42.2271 29.2446L42.7276 29.3689C44.4251 29.7941 44.4251 32.2039 42.7276 32.6309L42.2271 32.7551C41.9363 32.8278 41.6702 32.9771 41.4564 33.1873C41.2427 33.3975 41.0891 33.6611 41.0116 33.9508C40.9341 34.2404 40.9355 34.5455 41.0157 34.8344C41.0959 35.1232 41.252 35.3854 41.4676 35.5936L41.8369 35.9524C43.0951 37.1686 41.8894 39.2564 40.2076 38.7751L39.7106 38.6351C39.4225 38.5527 39.1176 38.5489 38.8275 38.624C38.5373 38.6991 38.2726 38.8505 38.0607 39.0624C37.8488 39.2743 37.6974 39.5391 37.6223 39.8292C37.5471 40.1193 37.551 40.4243 37.6334 40.7124L37.7751 41.2076C38.2564 42.8876 36.1686 44.0951 34.9524 42.8369L34.5936 42.4676C34.3854 42.252 34.1232 42.0959 33.8344 42.0157C33.5455 41.9355 33.2404 41.9341 32.9508 42.0116C32.6611 42.0891 32.3975 42.2427 32.1873 42.4564C31.9771 42.6702 31.8278 42.9363 31.7551 43.2271L31.6309 43.7276C31.2056 45.4251 28.7959 45.4251 28.3689 43.7276L28.2446 43.2271C28.172 42.9363 28.0227 42.6702 27.8125 42.4564C27.6023 42.2427 27.3387 42.0891 27.049 42.0116C26.7594 41.9341 26.4543 41.9355 26.1654 42.0157C25.8766 42.0959 25.6144 42.252 25.4061 42.4676L25.0474 42.8369C23.8311 44.0951 21.7434 42.8894 22.2246 41.2076L22.3646 40.7106C22.4469 40.4227 22.4507 40.118 22.3756 39.8281C22.3006 39.5382 22.1494 39.2736 21.9377 39.0617C21.726 38.8499 21.4616 38.6985 21.1717 38.6231C20.8819 38.5478 20.5772 38.5514 20.2891 38.6334L19.7921 38.7751C18.1121 39.2564 16.9046 37.1686 18.1629 35.9524L18.5321 35.5936C18.7478 35.3854 18.9039 35.1232 18.9841 34.8344C19.0643 34.5455 19.0657 34.2404 18.9882 33.9508C18.9107 33.6611 18.7571 33.3975 18.5434 33.1873C18.3296 32.9771 18.0635 32.8278 17.7726 32.7551L17.2721 32.6309C15.5746 32.2056 15.5746 29.7959 17.2721 29.3689L17.7726 29.2446C18.0635 29.172 18.3296 29.0227 18.5434 28.8125C18.7571 28.6023 18.9107 28.3387 18.9882 28.049C19.0657 27.7594 19.0643 27.4543 18.9841 27.1654C18.9039 26.8766 18.7478 26.6144 18.5321 26.4061L18.1629 26.0474C16.9046 24.8311 18.1104 22.7434 19.7921 23.2246L20.2891 23.3646C20.5771 23.4469 20.8818 23.4507 21.1717 23.3756C21.4616 23.3006 21.7262 23.1494 21.9381 22.9377C22.1499 22.726 22.3013 22.4616 22.3767 22.1717C22.452 21.8819 22.4484 21.5772 22.3664 21.2891L22.2246 20.7921C21.7434 19.1121 23.8311 17.9046 25.0474 19.1629L25.4061 19.5321C25.6144 19.7478 25.8766 19.9039 26.1654 19.9841C26.4543 20.0643 26.7594 20.0657 27.049 19.9882C27.3387 19.9107 27.6023 19.7571 27.8125 19.5434C28.0227 19.3296 28.172 19.0635 28.2446 18.7726L28.3689 18.2721V18.2721ZM38.7026 31.8749H30.4374L25.4779 38.4881C26.7412 39.2512 28.177 39.6821 29.6517 39.7409C31.1263 39.7996 32.5919 39.4843 33.9119 38.8242C35.2318 38.1641 36.3633 37.1808 37.201 35.9657C38.0387 34.7506 38.5552 33.3433 38.7026 31.8749ZM38.7026 30.1249C38.5552 28.6564 38.0387 27.2492 37.201 26.0341C36.3633 24.819 35.2318 23.8357 33.9119 23.1756C32.5919 22.5155 31.1263 22.2002 29.6517 22.2589C28.177 22.3177 26.7412 22.7486 25.4779 23.5116L30.4374 30.1266H38.7026V30.1249ZM24.8339 23.9421C24.7814 23.9789 24.7324 24.0174 24.6816 24.0559L24.8339 23.9421ZM24.0796 24.5634C23.1878 25.3815 22.4759 26.3762 21.9894 27.4843C21.5028 28.5924 21.2522 29.7897 21.2534 30.9999C21.2534 33.5461 22.3419 35.8386 24.0796 37.4364L28.9061 30.9999L24.0796 24.5634ZM24.6816 37.9439L24.8339 38.0576L24.6816 37.9439Z" fill="white"/>
</g>
</g>
<defs>
<clipPath id="clip0_747_152">
<rect width="28" height="28" fill="white" transform="translate(16 17)"/>
</clipPath>
<clipPath id="clip1_747_152">
<rect width="28" height="28" fill="white" transform="translate(16 17)"/>
</clipPath>
</defs>
</svg>
