<svg width="72" height="71" viewBox="0 0 72 71" fill="none" xmlns="http://www.w3.org/2000/svg">
<ellipse cx="36" cy="35.5" rx="36" ry="35.5" fill="#0C5E74"/>
<g clip-path="url(#clip0_883_74)">
<path fill-rule="evenodd" clip-rule="evenodd" d="M16 32.9746C16 31.9905 16.3909 31.0467 17.0868 30.3508C17.7827 29.6549 18.7265 29.264 19.7106 29.264H22.1844C23.1685 29.264 24.1123 29.6549 24.8082 30.3508C25.5041 31.0467 25.8951 31.9905 25.8951 32.9746V35.4484C25.8951 36.4325 25.5041 37.3763 24.8082 38.0722C24.1123 38.7681 23.1685 39.159 22.1844 39.159H19.7106C18.7265 39.159 17.7827 38.7681 17.0868 38.0722C16.3909 37.3763 16 36.4325 16 35.4484V32.9746ZM19.7106 31.7377C19.3826 31.7377 19.068 31.868 18.836 32.1C18.6041 32.332 18.4738 32.6466 18.4738 32.9746V35.4484C18.4738 35.7764 18.6041 36.091 18.836 36.323C19.068 36.5549 19.3826 36.6853 19.7106 36.6853H22.1844C22.5124 36.6853 22.8271 36.5549 23.059 36.323C23.291 36.091 23.4213 35.7764 23.4213 35.4484V32.9746C23.4213 32.6466 23.291 32.332 23.059 32.1C22.8271 31.868 22.5124 31.7377 22.1844 31.7377H19.7106ZM45.6852 32.9746C45.6852 31.9905 46.0761 31.0467 46.772 30.3508C47.4679 29.6549 48.4117 29.264 49.3958 29.264H51.8696C52.8537 29.264 53.7975 29.6549 54.4934 30.3508C55.1893 31.0467 55.5802 31.9905 55.5802 32.9746V35.4484C55.5802 36.4325 55.1893 37.3763 54.4934 38.0722C53.7975 38.7681 52.8537 39.159 51.8696 39.159H49.3958C48.4117 39.159 47.4679 38.7681 46.772 38.0722C46.0761 37.3763 45.6852 36.4325 45.6852 35.4484V32.9746ZM49.3958 31.7377C49.0678 31.7377 48.7532 31.868 48.5212 32.1C48.2892 32.332 48.1589 32.6466 48.1589 32.9746V35.4484C48.1589 35.7764 48.2892 36.091 48.5212 36.323C48.7532 36.5549 49.0678 36.6853 49.3958 36.6853H51.8696C52.1976 36.6853 52.5122 36.5549 52.7442 36.323C52.9761 36.091 53.1064 35.7764 53.1064 35.4484V32.9746C53.1064 32.6466 52.9761 32.332 52.7442 32.1C52.5122 31.868 52.1976 31.7377 51.8696 31.7377H49.3958ZM30.8426 18.132C30.8426 17.1479 31.2335 16.2041 31.9294 15.5082C32.6253 14.8123 33.5691 14.4214 34.5532 14.4214H37.027C38.0111 14.4214 38.9549 14.8123 39.6508 15.5082C40.3467 16.2041 40.7376 17.1479 40.7376 18.132V20.6058C40.7376 21.5899 40.3467 22.5337 39.6508 23.2296C38.9549 23.9255 38.0111 24.3164 37.027 24.3164H34.5532C33.5691 24.3164 32.6253 23.9255 31.9294 23.2296C31.2335 22.5337 30.8426 21.5899 30.8426 20.6058V18.132ZM34.5532 16.8951C34.2252 16.8951 33.9106 17.0255 33.6786 17.2574C33.4467 17.4894 33.3163 17.804 33.3163 18.132V20.6058C33.3163 20.9338 33.4467 21.2484 33.6786 21.4804C33.9106 21.7124 34.2252 21.8427 34.5532 21.8427H37.027C37.355 21.8427 37.6696 21.7124 37.9016 21.4804C38.1336 21.2484 38.2639 20.9338 38.2639 20.6058V18.132C38.2639 17.804 38.1336 17.4894 37.9016 17.2574C37.6696 17.0255 37.355 16.8951 37.027 16.8951H34.5532Z" fill="white"/>
<path d="M30.8426 18.1319H20.6161C20.3438 17.6603 19.9235 17.2917 19.4204 17.0833C18.9173 16.8749 18.3595 16.8384 17.8335 16.9793C17.3075 17.1203 16.8427 17.4308 16.5112 17.8629C16.1797 18.2949 16 18.8242 16 19.3688C16 19.9133 16.1797 20.4427 16.5112 20.8747C16.8427 21.3067 17.3075 21.6173 17.8335 21.7583C18.3595 21.8992 18.9173 21.8626 19.4204 21.6542C19.9235 21.4458 20.3438 21.0773 20.6161 20.6057H27.2161C24.0305 22.6169 21.6498 25.6802 20.4875 29.2638H22.1845C22.4887 29.2638 22.7881 29.3009 23.0701 29.3702C23.7553 27.5766 24.8112 25.9477 26.1688 24.59C27.5265 23.2324 29.1554 22.1764 30.949 21.4913C30.8781 21.2014 30.8424 20.9041 30.8426 20.6057V18.1319ZM40.6313 21.4913C40.7023 21.2014 40.738 20.9041 40.7377 20.6057V18.1319H50.9642C51.2365 17.6603 51.6568 17.2917 52.1599 17.0833C52.663 16.8749 53.2208 16.8384 53.7468 16.9793C54.2728 17.1203 54.7376 17.4308 55.0691 17.8629C55.4007 18.2949 55.5803 18.8242 55.5803 19.3688C55.5803 19.9133 55.4007 20.4427 55.0691 20.8747C54.7376 21.3067 54.2728 21.6173 53.7468 21.7583C53.2208 21.8992 52.663 21.8626 52.1599 21.6542C51.6568 21.4458 51.2365 21.0773 50.9642 20.6057H44.3642C47.5499 22.6169 49.9305 25.6802 51.0929 29.2638H49.3959C49.0916 29.2638 48.7947 29.3009 48.5103 29.3702C47.8251 27.5766 46.7692 25.9477 45.4115 24.59C44.0538 23.2324 42.425 22.1764 40.6313 21.4913V21.4913Z" fill="white"/>
</g>
<g clip-path="url(#clip1_883_74)">
<path fill-rule="evenodd" clip-rule="evenodd" d="M41.4193 56.6825C41.417 56.7978 41.392 56.9116 41.3457 57.0173C41.2994 57.1229 41.2327 57.2184 41.1494 57.2983C41.0661 57.3781 40.9679 57.4407 40.8604 57.4825C40.7529 57.5244 40.6382 57.5446 40.5228 57.542L30.6019 57.3329C30.4866 57.3306 30.3728 57.3056 30.2671 57.2593C30.1615 57.213 30.066 57.1463 29.9862 57.063C29.9063 56.9797 29.8437 56.8815 29.8019 56.774C29.76 56.6665 29.7398 56.5518 29.7424 56.4364L29.8418 51.719L26.8696 46.5176C26.6432 46.1216 26.5236 45.6736 26.5226 45.2175C26.5215 44.7613 26.6391 44.3128 26.8637 43.9158L36.1948 27.4267L44.8242 44.2955C45.0314 44.7013 45.1297 45.1539 45.1095 45.6091C45.0892 46.0643 44.9511 46.5065 44.7087 46.8923L41.5188 51.9626L41.4193 56.6825ZM40.1683 50.8151L43.2234 45.959C43.3046 45.8301 43.3507 45.6824 43.3574 45.5302C43.3641 45.3781 43.3311 45.2268 43.2616 45.0913L36.1181 31.126L28.3901 44.7804C28.3158 44.9125 28.277 45.0616 28.2775 45.2132C28.278 45.3648 28.3178 45.5136 28.3929 45.6452L31.2407 50.6282L40.1695 50.8164L40.1683 50.8151Z" fill="white"/>
<path fill-rule="evenodd" clip-rule="evenodd" d="M36.0394 31.2646L34.6282 42.8921C34.3777 43.1322 34.2041 43.4412 34.1293 43.78C34.0544 44.1188 34.0817 44.4721 34.2077 44.7954C34.3337 45.1187 34.5527 45.3973 34.8371 45.5961C35.1214 45.7949 35.4583 45.9049 35.8052 45.9122C36.1521 45.9195 36.4933 45.8238 36.7858 45.6371C37.0782 45.4505 37.3088 45.1813 37.4483 44.8637C37.5878 44.546 37.6299 44.1941 37.5694 43.8525C37.5089 43.5109 37.3485 43.1949 37.1084 42.9444L36.1882 31.2677L36.1168 31.1273L36.0394 31.2646V31.2646Z" fill="white"/>
</g>
<defs>
<clipPath id="clip0_883_74">
<rect width="39.5802" height="39.5802" fill="white" transform="translate(16 7)"/>
</clipPath>
<clipPath id="clip1_883_74">
<rect width="28.0668" height="28.0668" fill="white" transform="translate(55.6836 44.5764) rotate(136.207)"/>
</clipPath>
</defs>
</svg>
