<svg width="72" height="71" viewBox="0 0 72 71" fill="none" xmlns="http://www.w3.org/2000/svg">
<ellipse cx="36" cy="35.5" rx="36" ry="35.5" fill="#0C5E74"/>
<g clip-path="url(#clip0_883_91)">
<path d="M20.6562 16C19.6866 16 18.7566 16.3852 18.0709 17.0709C17.3852 17.7566 17 18.6866 17 19.6562V36.7188C17 37.6884 17.3852 38.6184 18.0709 39.3041C18.7566 39.9898 19.6866 40.375 20.6562 40.375H31.625V42.8125H19.4375C18.791 42.8125 18.171 43.0693 17.7139 43.5264C17.2568 43.9835 17 44.6035 17 45.25V52.5625C17 53.209 17.2568 53.829 17.7139 54.2861C18.171 54.7432 18.791 55 19.4375 55H53.5625C54.209 55 54.829 54.7432 55.2861 54.2861C55.7432 53.829 56 53.209 56 52.5625V45.25C56 44.6035 55.7432 43.9835 55.2861 43.5264C54.829 43.0693 54.209 42.8125 53.5625 42.8125H41.375V40.375H52.3438C53.3134 40.375 54.2434 39.9898 54.9291 39.3041C55.6148 38.6184 56 37.6884 56 36.7188V19.6562C56 18.6866 55.6148 17.7566 54.9291 17.0709C54.2434 16.3852 53.3134 16 52.3438 16H20.6562ZM20.6562 18.4375H52.3438C52.667 18.4375 52.977 18.5659 53.2055 18.7945C53.4341 19.023 53.5625 19.333 53.5625 19.6562V36.7188C53.5625 37.042 53.4341 37.352 53.2055 37.5805C52.977 37.8091 52.667 37.9375 52.3438 37.9375H20.6562C20.333 37.9375 20.023 37.8091 19.7945 37.5805C19.5659 37.352 19.4375 37.042 19.4375 36.7188V19.6562C19.4375 19.333 19.5659 19.023 19.7945 18.7945C20.023 18.5659 20.333 18.4375 20.6562 18.4375V18.4375ZM46.25 46.4688C46.25 46.1455 46.3784 45.8355 46.607 45.607C46.8355 45.3784 47.1455 45.25 47.4688 45.25C47.792 45.25 48.102 45.3784 48.3305 45.607C48.5591 45.8355 48.6875 46.1455 48.6875 46.4688C48.6875 46.792 48.5591 47.102 48.3305 47.3305C48.102 47.5591 47.792 47.6875 47.4688 47.6875C47.1455 47.6875 46.8355 47.5591 46.607 47.3305C46.3784 47.102 46.25 46.792 46.25 46.4688ZM51.125 46.4688C51.125 46.1455 51.2534 45.8355 51.482 45.607C51.7105 45.3784 52.0205 45.25 52.3438 45.25C52.667 45.25 52.977 45.3784 53.2055 45.607C53.4341 45.8355 53.5625 46.1455 53.5625 46.4688C53.5625 46.792 53.4341 47.102 53.2055 47.3305C52.977 47.5591 52.667 47.6875 52.3438 47.6875C52.0205 47.6875 51.7105 47.5591 51.482 47.3305C51.2534 47.102 51.125 46.792 51.125 46.4688ZM20.6562 45.25H32.8438C33.167 45.25 33.477 45.3784 33.7055 45.607C33.9341 45.8355 34.0625 46.1455 34.0625 46.4688C34.0625 46.792 33.9341 47.102 33.7055 47.3305C33.477 47.5591 33.167 47.6875 32.8438 47.6875H20.6562C20.333 47.6875 20.023 47.5591 19.7945 47.3305C19.5659 47.102 19.4375 46.792 19.4375 46.4688C19.4375 46.1455 19.5659 45.8355 19.7945 45.607C20.023 45.3784 20.333 45.25 20.6562 45.25V45.25ZM19.4375 50.7344C19.4375 50.5728 19.5017 50.4178 19.616 50.3035C19.7303 50.1892 19.8853 50.125 20.0469 50.125H33.4531C33.6147 50.125 33.7697 50.1892 33.884 50.3035C33.9983 50.4178 34.0625 50.5728 34.0625 50.7344C34.0625 50.896 33.9983 51.051 33.884 51.1653C33.7697 51.2795 33.6147 51.3438 33.4531 51.3438H20.0469C19.8853 51.3438 19.7303 51.2795 19.616 51.1653C19.5017 51.051 19.4375 50.896 19.4375 50.7344Z" fill="white"/>
<g clip-path="url(#clip1_883_91)">
<path d="M35.0631 21.9271C35.319 21.4152 35.7806 20.875 36.5 20.875C37.2194 20.875 37.681 21.4161 37.9369 21.9271C38.2011 22.4563 38.3281 23.0971 38.3281 23.6172V26.991L43.0538 29.3538C43.2818 29.4676 43.4735 29.6427 43.6075 29.8594C43.7415 30.076 43.8125 30.3258 43.8125 30.5805V31.8438C43.8125 31.9101 43.798 31.9756 43.7701 32.0358C43.7422 32.096 43.7015 32.1494 43.6509 32.1923C43.6003 32.2352 43.5409 32.2665 43.4769 32.2841C43.413 32.3018 43.346 32.3053 43.2805 32.2944L38.2468 31.4553L37.904 33.5147L39.1087 34.7194C39.1728 34.7833 39.2165 34.8648 39.2342 34.9536C39.2519 35.0423 39.2428 35.1344 39.2082 35.218C39.1735 35.3016 39.1148 35.373 39.0395 35.4232C38.9642 35.4734 38.8757 35.5002 38.7852 35.5H34.2148C34.1243 35.5002 34.0358 35.4734 33.9605 35.4232C33.8852 35.373 33.8265 35.3016 33.7918 35.218C33.7572 35.1344 33.7481 35.0423 33.7658 34.9536C33.7835 34.8648 33.8272 34.7833 33.8913 34.7194L35.0969 33.5147L34.7532 31.4553L29.7195 32.2944C29.654 32.3053 29.587 32.3018 29.5231 32.2841C29.4591 32.2665 29.3997 32.2352 29.3491 32.1923C29.2985 32.1494 29.2578 32.096 29.2299 32.0358C29.202 31.9756 29.1875 31.9101 29.1875 31.8438V30.5805C29.1875 30.3258 29.2585 30.076 29.3925 29.8594C29.5265 29.6427 29.7182 29.4676 29.9462 29.3538L34.6719 26.991V23.6172C34.6719 23.098 34.7998 22.4554 35.0631 21.9271ZM35.8803 22.3366C35.6874 22.7214 35.5859 23.2232 35.5859 23.6172V27.2734C35.5859 27.3582 35.5623 27.4414 35.5178 27.5135C35.4732 27.5857 35.4095 27.644 35.3337 27.682L30.3538 30.1719C30.278 30.2099 30.2143 30.2683 30.1697 30.3404C30.1252 30.4126 30.1016 30.4957 30.1016 30.5805V31.3045L35.054 30.4791C35.1733 30.4592 35.2957 30.4875 35.3942 30.5578C35.4928 30.628 35.5594 30.7345 35.5795 30.8538L36.0366 33.596C36.0487 33.668 36.0434 33.7418 36.0211 33.8113C35.9989 33.8808 35.9603 33.9439 35.9086 33.9955L35.319 34.5859H37.6828L37.0914 33.9955C37.0399 33.944 37.0014 33.881 36.9791 33.8117C36.9568 33.7424 36.9515 33.6687 36.9634 33.5969L37.4205 30.8547C37.4303 30.7955 37.4518 30.7387 37.4836 30.6878C37.5154 30.6368 37.5569 30.5926 37.6058 30.5577C37.6547 30.5229 37.71 30.4979 37.7686 30.4844C37.8271 30.4709 37.8877 30.4691 37.947 30.4791L42.8984 31.3045V30.5805C42.8984 30.4957 42.8748 30.4126 42.8303 30.3404C42.7857 30.2683 42.722 30.2099 42.6462 30.1719L37.6663 27.682C37.5905 27.644 37.5268 27.5857 37.4822 27.5135C37.4377 27.4414 37.4141 27.3582 37.4141 27.2734V23.6172C37.4141 23.2223 37.3135 22.7223 37.1197 22.3366C36.9186 21.9344 36.6947 21.7891 36.5 21.7891C36.3053 21.7891 36.0814 21.9335 35.8803 22.3366Z" fill="white"/>
</g>
</g>
<defs>
<clipPath id="clip0_883_91">
<rect width="39" height="39" fill="white" transform="translate(17 16)"/>
</clipPath>
<clipPath id="clip1_883_91">
<rect width="14.625" height="14.625" fill="white" transform="translate(29.1875 20.875)"/>
</clipPath>
</defs>
</svg>
