<svg width="61" height="61" viewBox="0 0 61 61" fill="none" xmlns="http://www.w3.org/2000/svg">
<circle cx="30.5" cy="30.5" r="30.5" fill="#C5789D"/>
<path d="M43.125 40.25C43.125 40.25 45 40.25 45 38.375C45 36.5 43.125 30.875 35.625 30.875C28.125 30.875 26.25 36.5 26.25 38.375C26.25 40.25 28.125 40.25 28.125 40.25H43.125ZM28.1662 38.375C28.1524 38.3731 28.1386 38.3706 28.125 38.3675C28.1269 37.8725 28.4381 36.4363 29.55 35.1425C30.585 33.9294 32.4037 32.75 35.625 32.75C38.8444 32.75 40.6631 33.9312 41.7 35.1425C42.8119 36.4363 43.1213 37.8744 43.125 38.3675L43.11 38.3713C43.1013 38.3727 43.0925 38.374 43.0837 38.375H28.1662ZM35.625 27.125C36.6196 27.125 37.5734 26.7299 38.2766 26.0267C38.9799 25.3234 39.375 24.3696 39.375 23.375C39.375 22.3804 38.9799 21.4266 38.2766 20.7233C37.5734 20.0201 36.6196 19.625 35.625 19.625C34.6304 19.625 33.6766 20.0201 32.9734 20.7233C32.2701 21.4266 31.875 22.3804 31.875 23.375C31.875 24.3696 32.2701 25.3234 32.9734 26.0267C33.6766 26.7299 34.6304 27.125 35.625 27.125ZM41.25 23.375C41.25 24.1137 41.1045 24.8451 40.8218 25.5276C40.5391 26.2101 40.1248 26.8301 39.6025 27.3525C39.0801 27.8748 38.4601 28.2891 37.7776 28.5718C37.0951 28.8545 36.3637 29 35.625 29C34.8863 29 34.1549 28.8545 33.4724 28.5718C32.7899 28.2891 32.1699 27.8748 31.6475 27.3525C31.1252 26.8301 30.7109 26.2101 30.4282 25.5276C30.1455 24.8451 30 24.1137 30 23.375C30 21.8832 30.5926 20.4524 31.6475 19.3975C32.7024 18.3426 34.1332 17.75 35.625 17.75C37.1168 17.75 38.5476 18.3426 39.6025 19.3975C40.6574 20.4524 41.25 21.8832 41.25 23.375ZM28.005 31.4C27.255 31.1638 26.4818 31.0086 25.6987 30.9369C25.2587 30.895 24.817 30.8744 24.375 30.875C16.875 30.875 15 36.5 15 38.375C15 39.6256 15.6244 40.25 16.875 40.25H24.78C24.502 39.6647 24.3634 39.0229 24.375 38.375C24.375 36.4813 25.0819 34.5462 26.4188 32.93C26.8744 32.3787 27.405 31.8631 28.005 31.4ZM24.225 32.75C23.1153 34.4174 22.5158 36.3722 22.5 38.375H16.875C16.875 37.8875 17.1825 36.4438 18.3 35.1425C19.3219 33.95 21.0975 32.7875 24.225 32.7519V32.75ZM17.8125 24.3125C17.8125 22.8207 18.4051 21.3899 19.46 20.335C20.5149 19.2801 21.9457 18.6875 23.4375 18.6875C24.9293 18.6875 26.3601 19.2801 27.415 20.335C28.4699 21.3899 29.0625 22.8207 29.0625 24.3125C29.0625 25.8043 28.4699 27.2351 27.415 28.29C26.3601 29.3449 24.9293 29.9375 23.4375 29.9375C21.9457 29.9375 20.5149 29.3449 19.46 28.29C18.4051 27.2351 17.8125 25.8043 17.8125 24.3125ZM23.4375 20.5625C22.4429 20.5625 21.4891 20.9576 20.7858 21.6608C20.0826 22.3641 19.6875 23.3179 19.6875 24.3125C19.6875 25.3071 20.0826 26.2609 20.7858 26.9642C21.4891 27.6674 22.4429 28.0625 23.4375 28.0625C24.4321 28.0625 25.3859 27.6674 26.0892 26.9642C26.7924 26.2609 27.1875 25.3071 27.1875 24.3125C27.1875 23.3179 26.7924 22.3641 26.0892 21.6608C25.3859 20.9576 24.4321 20.5625 23.4375 20.5625Z" fill="white"/>
</svg>
