<svg width="61" height="61" viewBox="0 0 61 61" fill="none" xmlns="http://www.w3.org/2000/svg">
<circle cx="30.5" cy="30.5" r="30.5" fill="#C5789D"/>
<g clip-path="url(#clip0_571_39)">
<path d="M31.3439 26.2813C31.3439 26.0575 31.255 25.8429 31.0967 25.6846C30.9385 25.5264 30.7239 25.4375 30.5001 25.4375C30.2763 25.4375 30.0617 25.5264 29.9035 25.6846C29.7452 25.8429 29.6564 26.0575 29.6564 26.2813V31.9546L27.2449 35.9709C27.1297 36.1629 27.0954 36.3928 27.1497 36.61C27.204 36.8273 27.3423 37.0141 27.5343 37.1293C27.7263 37.2446 27.9562 37.2788 28.1735 37.2246C28.3907 37.1703 28.5775 37.0319 28.6928 36.8399L31.224 32.6212C31.3025 32.4901 31.3439 32.3402 31.3439 32.1875V26.2813Z" fill="white"/>
<path d="M27.9688 17C27.745 17 27.5304 17.0889 27.3721 17.2471C27.2139 17.4054 27.125 17.62 27.125 17.8438C27.125 18.0675 27.2139 18.2821 27.3721 18.4404C27.5304 18.5986 27.745 18.6875 27.9688 18.6875H28.8125V20.4931C26.5146 20.8251 24.3654 21.8268 22.6335 23.3731C20.9016 24.9194 19.6637 26.9418 19.0744 29.1875C18.4852 31.4333 18.5707 33.8029 19.3203 36.0003C20.0699 38.1977 21.4504 40.1256 23.2893 41.543L22.2734 42.5589C22.115 42.7171 22.0259 42.9318 22.0257 43.1557C22.0256 43.3796 22.1144 43.5944 22.2726 43.7528C22.4308 43.9112 22.6455 44.0003 22.8694 44.0005C23.0933 44.0006 23.3081 43.9118 23.4665 43.7536L24.7254 42.4948C26.4888 43.4846 28.4777 44.003 30.5 44C32.5223 44.003 34.5112 43.4846 36.2746 42.4948L37.5335 43.7536C37.6919 43.9118 37.9067 44.0006 38.1306 44.0005C38.3545 44.0003 38.5692 43.9112 38.7274 43.7528C38.8856 43.5944 38.9744 43.3796 38.9743 43.1557C38.9741 42.9318 38.885 42.7171 38.7266 42.5589L37.7124 41.543C39.5513 40.1255 40.9318 38.1975 41.6813 35.9999C42.4308 33.8024 42.5162 31.4327 41.9268 29.1869C41.3373 26.9411 40.0992 24.9188 38.367 23.3726C36.6349 21.8264 34.4855 20.8248 32.1875 20.4931V18.6875H33.0312C33.255 18.6875 33.4696 18.5986 33.6279 18.4404C33.7861 18.2821 33.875 18.0675 33.875 17.8438C33.875 17.62 33.7861 17.4054 33.6279 17.2471C33.4696 17.0889 33.255 17 33.0312 17H27.9688ZM29.7204 22.0929C30.2394 22.0534 30.7606 22.0534 31.2796 22.0929C33.8896 22.2944 36.3201 23.4991 38.0611 25.454C39.8021 27.4089 40.7183 29.9621 40.6175 32.5779C40.5166 35.1938 39.4065 37.6689 37.5202 39.4839C35.6338 41.2989 33.1178 42.3128 30.5 42.3128C27.8822 42.3128 25.3662 41.2989 23.4798 39.4839C21.5935 37.6689 20.4834 35.1938 20.3825 32.5779C20.2817 29.9621 21.1979 27.4089 22.9389 25.454C24.6799 23.4991 27.1104 22.2944 29.7204 22.0929ZM17 22.9063C17 24.1769 17.5619 25.3177 18.4513 26.0906C19.7536 23.5255 21.838 21.4411 24.4031 20.1388C23.8392 19.49 23.0907 19.0289 22.2576 18.8172C21.4245 18.6056 20.5466 18.6534 19.7415 18.9544C18.9364 19.2554 18.2424 19.7951 17.7524 20.5014C17.2625 21.2076 17 22.0467 17 22.9063V22.9063ZM39.7812 18.6875C38.5106 18.6875 37.3698 19.2494 36.5969 20.1388C39.162 21.4411 41.2464 23.5255 42.5487 26.0906C43.1975 25.5267 43.6586 24.7782 43.8703 23.9451C44.0819 23.112 44.0341 22.2341 43.7331 21.429C43.4321 20.6239 42.8924 19.9299 42.1861 19.4399C41.4799 18.95 40.6408 18.6875 39.7812 18.6875Z" fill="white"/>
</g>
<defs>
<clipPath id="clip0_571_39">
<rect width="27" height="27" fill="white" transform="translate(17 17)"/>
</clipPath>
</defs>
</svg>
