<svg width="23" height="24" viewBox="0 0 23 24" fill="none" xmlns="http://www.w3.org/2000/svg">
<path d="M23 11.5986C23 18.0043 18.0043 23.1972 11.5986 23.1972C5.19287 23.1972 0 18.0043 0 11.5986C0 5.19287 5.19287 0 11.5986 0C18.0043 0 23 5.19287 23 11.5986Z" fill="#DA036A"/>
<path d="M16.9009 6.03529C16.259 5.38751 15.4947 4.87394 14.6524 4.52452C13.8101 4.1751 12.9067 3.99681 11.9948 4.00004C8.17362 4.00004 5.0595 7.11329 5.056 10.9353C5.056 12.1594 5.37625 13.3503 5.98088 14.4047L5 18L8.6785 17.0358C9.69613 17.5896 10.8362 17.8799 11.9948 17.8802H11.9983C15.8203 17.8802 18.9335 14.7669 18.937 10.9414C18.9379 10.0297 18.7583 9.12683 18.4087 8.28481C18.0591 7.44279 17.5472 6.67827 16.9009 6.03529ZM11.9948 16.7059C10.9614 16.7063 9.94699 16.4282 9.05825 15.9009L8.84825 15.7749L6.666 16.3472L7.24875 14.2183L7.11225 13.9987C6.53458 13.0802 6.22907 12.0168 6.23112 10.9318C6.23112 7.75904 8.8185 5.17079 11.9983 5.17079C12.7558 5.16943 13.5061 5.31803 14.2059 5.60802C14.9057 5.89801 15.5412 6.32366 16.0758 6.86042C16.6122 7.39509 17.0374 8.03067 17.3269 8.7305C17.6165 9.43033 17.7646 10.1806 17.7628 10.9379C17.7593 14.122 15.1719 16.7059 11.9948 16.7059ZM15.1579 12.3887C14.9855 12.302 14.1341 11.8829 13.974 11.8234C13.8147 11.7665 13.6984 11.7368 13.5846 11.91C13.4683 12.0824 13.1358 12.4753 13.036 12.5882C12.9363 12.7045 12.833 12.7177 12.6597 12.6319C12.4874 12.5444 11.9283 12.3624 11.2668 11.77C10.7505 11.3107 10.4049 10.7419 10.3016 10.5695C10.2019 10.3963 10.292 10.3035 10.3786 10.2169C10.4547 10.1399 10.551 10.0139 10.6376 9.91417C10.7251 9.81442 10.754 9.74092 10.8109 9.62542C10.8677 9.50817 10.8406 9.40842 10.7977 9.32179C10.754 9.23517 10.4084 8.38029 10.2622 8.03554C10.1222 7.69517 9.97962 7.74242 9.87287 7.73804C9.77312 7.73192 9.65675 7.73192 9.54038 7.73192C9.45249 7.7341 9.36601 7.75443 9.28636 7.79162C9.2067 7.82881 9.1356 7.88207 9.0775 7.94804C8.91825 8.12129 8.47288 8.54042 8.47288 9.39529C8.47288 10.2502 9.09412 11.0718 9.18162 11.1882C9.26737 11.3045 10.4014 13.0537 12.1417 13.8062C12.553 13.9855 12.8768 14.0914 13.1296 14.1719C13.5453 14.3049 13.9206 14.2848 14.2199 14.2419C14.5524 14.1912 15.2445 13.8219 15.3906 13.4168C15.5341 13.0108 15.5341 12.6643 15.4904 12.5917C15.4475 12.5182 15.3311 12.4753 15.1579 12.3887Z" fill="white"/>
</svg>
