<svg width="69" height="69" viewBox="0 0 69 69" fill="none" xmlns="http://www.w3.org/2000/svg">
<circle cx="34.5" cy="34.5" r="34.5" fill="#01A3B9"/>
<g clip-path="url(#clip0_818_466)">
<path d="M49.6765 20.472C50.0565 20.472 50.4208 20.6208 50.6895 20.8856C50.9581 21.1504 51.109 21.5095 51.109 21.884V43.064H16.7299V21.884C16.7299 21.5095 16.8808 21.1504 17.1494 20.8856C17.4181 20.6208 17.7824 20.472 18.1623 20.472H49.6765ZM18.1623 17.648C17.0226 17.648 15.9295 18.0943 15.1236 18.8887C14.3177 19.6831 13.8649 20.7606 13.8649 21.884V45.888H53.9739V21.884C53.9739 20.7606 53.5212 19.6831 52.7153 18.8887C51.9093 18.0943 50.8163 17.648 49.6765 17.648H18.1623ZM11 47.3H56.8389C56.8389 48.4235 56.3861 49.5009 55.5802 50.2953C54.7743 51.0897 53.6812 51.536 52.5415 51.536H15.2974C14.1577 51.536 13.0646 51.0897 12.2587 50.2953C11.4528 49.5009 11 48.4235 11 47.3V47.3Z" fill="white"/>
<path d="M37.7055 24.0792C37.735 24.0032 37.7453 23.9234 37.7359 23.8442C37.7264 23.7651 37.6974 23.6882 37.6504 23.618C37.6035 23.5478 37.5395 23.4855 37.4622 23.4349C37.3849 23.3842 37.2957 23.3461 37.1998 23.3228C37.1039 23.2994 37.0031 23.2912 36.9033 23.2987C36.8034 23.3062 36.7063 23.3292 36.6177 23.3664C36.529 23.4036 36.4504 23.4543 36.3865 23.5155C36.3225 23.5768 36.2745 23.6474 36.245 23.7234L30.1338 39.4569C30.0743 39.6103 30.0941 39.7762 30.1889 39.9181C30.2838 40.0599 30.4459 40.1661 30.6395 40.2133C30.8332 40.2605 31.0426 40.2448 31.2217 40.1697C31.4008 40.0945 31.5348 39.9661 31.5944 39.8127L37.7055 24.0792V24.0792ZM29.1133 27.1036C29.1844 27.1599 29.2409 27.2266 29.2794 27.3002C29.3179 27.3737 29.3377 27.4525 29.3377 27.5321C29.3377 27.6117 29.3179 27.6905 29.2794 27.764C29.2409 27.8375 29.1844 27.9043 29.1133 27.9605L24.3054 31.768L29.1133 35.5755C29.2567 35.6892 29.3373 35.8433 29.3373 36.004C29.3373 36.1647 29.2567 36.3188 29.1133 36.4324C28.9698 36.546 28.7753 36.6099 28.5724 36.6099C28.3696 36.6099 28.1751 36.546 28.0316 36.4324L22.6844 32.1965C22.6132 32.1403 22.5568 32.0735 22.5183 32C22.4798 31.9264 22.46 31.8476 22.46 31.768C22.46 31.6884 22.4798 31.6096 22.5183 31.5361C22.5568 31.4626 22.6132 31.3958 22.6844 31.3396L28.0316 27.1036C28.1026 27.0473 28.1869 27.0026 28.2797 26.9721C28.3725 26.9416 28.472 26.9259 28.5724 26.9259C28.6729 26.9259 28.7724 26.9416 28.8652 26.9721C28.958 27.0026 29.0423 27.0473 29.1133 27.1036V27.1036ZM38.7261 27.1036C38.6549 27.1599 38.5985 27.2266 38.56 27.3002C38.5215 27.3737 38.5017 27.4525 38.5017 27.5321C38.5017 27.6117 38.5215 27.6905 38.56 27.764C38.5985 27.8375 38.6549 27.9043 38.7261 27.9605L43.534 31.768L38.7261 35.5755C38.6551 35.6318 38.5987 35.6986 38.5603 35.7721C38.5218 35.8456 38.5021 35.9244 38.5021 36.004C38.5021 36.0835 38.5218 36.1623 38.5603 36.2358C38.5987 36.3094 38.6551 36.3761 38.7261 36.4324C38.7971 36.4887 38.8814 36.5333 38.9742 36.5638C39.067 36.5942 39.1665 36.6099 39.2669 36.6099C39.3674 36.6099 39.4668 36.5942 39.5596 36.5638C39.6524 36.5333 39.7367 36.4887 39.8077 36.4324L45.155 32.1965C45.2261 32.1403 45.2826 32.0735 45.3211 32C45.3596 31.9264 45.3794 31.8476 45.3794 31.768C45.3794 31.6884 45.3596 31.6096 45.3211 31.5361C45.2826 31.4626 45.2261 31.3958 45.155 31.3396L39.8077 27.1036C39.7368 27.0473 39.6525 27.0026 39.5597 26.9721C39.4669 26.9416 39.3674 26.9259 39.2669 26.9259C39.1664 26.9259 39.0669 26.9416 38.9741 26.9721C38.8813 27.0026 38.797 27.0473 38.7261 27.1036V27.1036Z" fill="white"/>
</g>
<defs>
<clipPath id="clip0_818_466">
<rect width="45.8389" height="45.184" fill="white" transform="translate(11 12)"/>
</clipPath>
</defs>
</svg>
