<svg width="70" height="70" viewBox="0 0 70 70" fill="none" xmlns="http://www.w3.org/2000/svg">
<circle cx="34.5549" cy="34.5549" r="34.5549" fill="#01A3B9"/>
<g clip-path="url(#clip0_880_60)">
<path fill-rule="evenodd" clip-rule="evenodd" d="M15.1783 23.9908C15.9145 23.2713 16.9064 22.8737 17.9358 22.8855C18.9651 22.8973 19.9476 23.3175 20.6672 24.0537L22.4758 25.9043C23.1953 26.6405 23.5929 27.6324 23.5811 28.6617C23.5693 29.6911 23.1491 30.6736 22.4129 31.3931L20.5623 33.2018C19.8261 33.9213 18.8343 34.3189 17.8049 34.3071C16.7756 34.2953 15.793 33.8751 15.0735 33.1389L13.2649 31.2883C12.5453 30.5521 12.1477 29.5602 12.1595 28.5309C12.1713 27.5015 12.5916 26.519 13.3278 25.7995L15.1783 23.9908ZM18.8166 25.8624C18.5767 25.617 18.2492 25.4769 17.9061 25.473C17.563 25.469 17.2324 25.6016 16.987 25.8414L15.1364 27.65C14.891 27.8899 14.7509 28.2174 14.747 28.5605C14.7431 28.9036 14.8756 29.2343 15.1154 29.4797L16.9241 31.3302C17.1639 31.5756 17.4914 31.7157 17.8346 31.7196C18.1777 31.7236 18.5083 31.591 18.7537 31.3512L20.6043 29.5425C20.8497 29.3027 20.9897 28.9752 20.9937 28.6321C20.9976 28.289 20.8651 27.9583 20.6252 27.7129L18.8166 25.8624ZM36.8821 46.1977C37.6183 45.4782 38.6102 45.0806 39.6395 45.0924C40.6689 45.1041 41.6514 45.5244 42.3709 46.2606L44.1796 48.1111C44.8991 48.8473 45.2967 49.8392 45.2849 50.8686C45.2731 51.8979 44.8529 52.8804 44.1167 53.6L42.2661 55.4086C41.5299 56.1281 40.538 56.5257 39.5087 56.514C38.4793 56.5022 37.4968 56.0819 36.7773 55.3457L34.9686 53.4952C34.2491 52.759 33.8515 51.7671 33.8633 50.7377C33.8751 49.7084 34.2953 48.7259 35.0315 48.0063L36.8821 46.1977ZM40.5204 48.0692C40.2805 47.8238 39.953 47.6837 39.6099 47.6798C39.2668 47.6759 38.9362 47.8084 38.6908 48.0483L36.8402 49.8569C36.5948 50.0967 36.4547 50.4242 36.4508 50.7674C36.4468 51.1105 36.5794 51.4411 36.8192 51.6865L38.6279 53.5371C38.8677 53.7825 39.1952 53.9226 39.5383 53.9265C39.8814 53.9304 40.2121 53.7979 40.4575 53.558L42.308 51.7494C42.5534 51.5096 42.6935 51.1821 42.6975 50.8389C42.7014 50.4958 42.5688 50.1652 42.329 49.9198L40.5204 48.0692ZM37.1336 24.2424C37.8698 23.5228 38.8617 23.1252 39.8911 23.137C40.9204 23.1488 41.903 23.569 42.6225 24.3053L44.4311 26.1558C45.1506 26.892 45.5482 27.8839 45.5365 28.9133C45.5247 29.9426 45.1044 30.9251 44.3682 31.6447L42.5177 33.4533C41.7815 34.1728 40.7896 34.5704 39.7602 34.5586C38.7309 34.5468 37.7484 34.1266 37.0288 33.3904L35.2202 31.5398C34.5007 30.8036 34.1031 29.8118 34.1149 28.7824C34.1267 27.7531 34.5469 26.7705 35.2831 26.051L37.1336 24.2424ZM40.7719 26.1139C40.5321 25.8685 40.2046 25.7284 39.8614 25.7245C39.5183 25.7206 39.1877 25.8531 38.9423 26.0929L37.0917 27.9016C36.8463 28.1414 36.7062 28.4689 36.7023 28.812C36.6984 29.1552 36.8309 29.4858 37.0708 29.7312L38.8794 31.5818C39.1193 31.8272 39.4468 31.9672 39.7899 31.9712C40.133 31.9751 40.4636 31.8426 40.709 31.6027L42.5596 29.7941C42.805 29.5542 42.9451 29.2267 42.949 28.8836C42.9529 28.5405 42.8204 28.2099 42.5806 27.9645L40.7719 26.1139Z" fill="white"/>
<path d="M37.1337 24.2424L29.6567 16.5921C29.8105 16.0436 29.7789 15.4597 29.567 14.931C29.355 14.4023 28.9745 13.9582 28.4845 13.6678C27.9945 13.3773 27.4223 13.2567 26.8568 13.3246C26.2912 13.3925 25.7638 13.6451 25.3565 14.0432C24.9491 14.4414 24.6845 14.9628 24.6037 15.5267C24.5228 16.0905 24.6303 16.6653 24.9095 17.1618C25.1886 17.6584 25.6238 18.0489 26.1475 18.2729C26.6713 18.4969 27.2543 18.5419 27.8062 18.4007L32.6316 23.3381C28.798 22.4254 24.7657 22.8842 21.2351 24.6348L22.4758 25.9043C22.6983 26.1319 22.8894 26.3829 23.0438 26.6446C24.8865 25.8457 26.877 25.4447 28.8853 25.4677C30.8936 25.4908 32.8744 25.9373 34.6984 26.7781C34.8634 26.5131 35.0597 26.269 35.2831 26.051L37.1337 24.2424ZM41.7774 34.0212C42.0461 33.8624 42.2947 33.6717 42.5177 33.4533L44.3683 31.6446L51.8452 39.2949C52.3971 39.1538 52.9801 39.1987 53.5038 39.4227C54.0276 39.6467 54.4628 40.0373 54.7419 40.5338C55.021 41.0304 55.1285 41.6051 55.0477 42.169C54.9669 42.7329 54.7023 43.2543 54.2949 43.6524C53.8875 44.0506 53.3602 44.3032 52.7946 44.3711C52.229 44.4389 51.6569 44.3183 51.1669 44.0279C50.6769 43.7374 50.2964 43.2934 50.0844 42.7647C49.8725 42.2359 49.8409 41.6521 49.9946 41.1036L45.1692 36.1662C45.9938 40.0198 45.4427 44.0405 43.6117 47.5301L42.371 46.2606C42.1485 46.0329 41.9037 45.838 41.6439 45.6758C42.4847 43.8519 42.9312 41.8711 42.9542 39.8628C42.9772 37.8545 42.5762 35.8639 41.7774 34.0212Z" fill="white"/>
</g>
<defs>
<clipPath id="clip0_880_60">
<rect width="41.4021" height="41.4021" fill="white" transform="translate(34.6094 5) rotate(45.6564)"/>
</clipPath>
</defs>
</svg>
