<svg width="72" height="71" viewBox="0 0 72 71" fill="none" xmlns="http://www.w3.org/2000/svg">
<ellipse cx="36" cy="35.5" rx="36" ry="35.5" fill="#0C5E74"/>
<g clip-path="url(#clip0_883_92)">
<path d="M51.8125 21.625C52.1937 21.625 52.5594 21.7765 52.829 22.046C53.0986 22.3156 53.25 22.6813 53.25 23.0625V44.625H18.75V23.0625C18.75 22.6813 18.9015 22.3156 19.171 22.046C19.4406 21.7765 19.8063 21.625 20.1875 21.625H51.8125ZM20.1875 18.75C19.0438 18.75 17.9469 19.2044 17.1381 20.0131C16.3294 20.8219 15.875 21.9188 15.875 23.0625V47.5H56.125V23.0625C56.125 21.9188 55.6706 20.8219 54.8619 20.0131C54.0531 19.2044 52.9562 18.75 51.8125 18.75H20.1875ZM13 48.9375H59C59 50.0812 58.5456 51.1781 57.7369 51.9869C56.9281 52.7956 55.8312 53.25 54.6875 53.25H17.3125C16.1688 53.25 15.0719 52.7956 14.2631 51.9869C13.4544 51.1781 13 50.0812 13 48.9375V48.9375Z" fill="white"/>
<path d="M33.0804 22.2991C33.1807 22.1988 33.2997 22.1193 33.4306 22.0651C33.5616 22.0108 33.702 21.9829 33.8437 21.9829C33.9855 21.9829 34.1259 22.0108 34.2568 22.0651C34.3878 22.1193 34.5068 22.1988 34.607 22.2991C34.7073 22.3993 34.7868 22.5183 34.841 22.6493C34.8953 22.7803 34.9232 22.9206 34.9232 23.0624C34.9232 23.2042 34.8953 23.3445 34.841 23.4755C34.7868 23.6065 34.7073 23.7255 34.607 23.8257L31.0557 27.3749L34.607 30.9241C34.8095 31.1265 34.9232 31.4011 34.9232 31.6874C34.9232 31.9737 34.8095 32.2483 34.607 32.4507C34.4046 32.6532 34.13 32.7669 33.8437 32.7669C33.5574 32.7669 33.2829 32.6532 33.0804 32.4507L28.7679 28.1382C28.6675 28.0381 28.5879 27.9191 28.5335 27.7881C28.4791 27.6571 28.4512 27.5167 28.4512 27.3749C28.4512 27.2331 28.4791 27.0927 28.5335 26.9617C28.5879 26.8307 28.6675 26.7117 28.7679 26.6116L33.0804 22.2991V22.2991ZM38.9195 22.2991C38.8193 22.1988 38.7003 22.1193 38.5693 22.0651C38.4384 22.0108 38.298 21.9829 38.1562 21.9829C38.0145 21.9829 37.8741 22.0108 37.7431 22.0651C37.6122 22.1193 37.4932 22.1988 37.3929 22.2991C37.2927 22.3993 37.2132 22.5183 37.1589 22.6493C37.1047 22.7803 37.0767 22.9206 37.0767 23.0624C37.0767 23.2042 37.1047 23.3445 37.1589 23.4755C37.2132 23.6065 37.2927 23.7255 37.3929 23.8257L40.9443 27.3749L37.3929 30.9241C37.1905 31.1265 37.0767 31.4011 37.0767 31.6874C37.0767 31.9737 37.1905 32.2483 37.3929 32.4507C37.5954 32.6532 37.8699 32.7669 38.1562 32.7669C38.4425 32.7669 38.7171 32.6532 38.9195 32.4507L43.232 28.1382C43.3324 28.0381 43.4121 27.9191 43.4664 27.7881C43.5208 27.6571 43.5488 27.5167 43.5488 27.3749C43.5488 27.2331 43.5208 27.0927 43.4664 26.9617C43.4121 26.8307 43.3324 26.7117 43.232 26.6116L38.9195 22.2991V22.2991Z" fill="white"/>
<path d="M23.0625 17.6719C23.0625 16.8141 23.5169 15.9914 24.3256 15.3848C25.1344 14.7783 26.2313 14.4375 27.375 14.4375H44.625C45.7687 14.4375 46.8656 14.7783 47.6744 15.3848C48.4831 15.9914 48.9375 16.8141 48.9375 17.6719V37.0781C48.9375 37.9359 48.4831 38.7586 47.6744 39.3652C46.8656 39.9717 45.7687 40.3125 44.625 40.3125H27.375C26.2313 40.3125 25.1344 39.9717 24.3256 39.3652C23.5169 38.7586 23.0625 37.9359 23.0625 37.0781V17.6719ZM44.625 16.0547H27.375C26.8031 16.0547 26.2547 16.2251 25.8503 16.5284C25.4459 16.8316 25.2188 17.243 25.2188 17.6719V37.0781C25.2188 37.507 25.4459 37.9184 25.8503 38.2216C26.2547 38.5249 26.8031 38.6953 27.375 38.6953H44.625C45.1969 38.6953 45.7453 38.5249 46.1497 38.2216C46.5541 37.9184 46.7812 37.507 46.7812 37.0781V17.6719C46.7812 17.243 46.5541 16.8316 46.1497 16.5284C45.7453 16.2251 45.1969 16.0547 44.625 16.0547Z" fill="white"/>
</g>
<defs>
<clipPath id="clip0_883_92">
<rect width="46" height="46" fill="white" transform="translate(13 13)"/>
</clipPath>
</defs>
</svg>
