<svg width="61" height="61" viewBox="0 0 61 61" fill="none" xmlns="http://www.w3.org/2000/svg">
<circle cx="30.5" cy="30.5" r="30.5" fill="#C5789D"/>
<path d="M39.5 40.375C39.5 42.4469 37.4 44.125 34.8125 44.125C32.225 44.125 30.125 42.4469 30.125 40.375C30.125 38.3031 32.225 36.625 34.8125 36.625C37.4 36.625 39.5 38.3031 39.5 40.375Z" fill="white"/>
<path fill-rule="evenodd" clip-rule="evenodd" d="M39.5 21.625V40.375H37.625V21.625H39.5Z" fill="white"/>
<path d="M37.625 21.2874C37.6253 20.8541 37.7756 20.4343 38.0504 20.0993C38.3252 19.7643 38.7076 19.5349 39.1325 19.4499L44.7575 18.3249C45.0294 18.2706 45.31 18.2772 45.579 18.3444C45.8481 18.4115 46.0989 18.5375 46.3134 18.7133C46.5279 18.889 46.7007 19.1102 46.8194 19.3607C46.9382 19.6113 46.9998 19.8851 47 20.1624V23.4999L37.625 25.3749V21.2874Z" fill="white"/>
<path fill-rule="evenodd" clip-rule="evenodd" d="M17 37.5625C17 37.3139 17.0988 37.0754 17.2746 36.8996C17.4504 36.7238 17.6889 36.625 17.9375 36.625H24.5C24.7486 36.625 24.9871 36.7238 25.1629 36.8996C25.3387 37.0754 25.4375 37.3139 25.4375 37.5625C25.4375 37.8111 25.3387 38.0496 25.1629 38.2254C24.9871 38.4012 24.7486 38.5 24.5 38.5H17.9375C17.6889 38.5 17.4504 38.4012 17.2746 38.2254C17.0988 38.0496 17 37.8111 17 37.5625ZM17 30.0625C17 29.8139 17.0988 29.5754 17.2746 29.3996C17.4504 29.2238 17.6889 29.125 17.9375 29.125H32C32.2486 29.125 32.4871 29.2238 32.6629 29.3996C32.8387 29.5754 32.9375 29.8139 32.9375 30.0625C32.9375 30.3111 32.8387 30.5496 32.6629 30.7254C32.4871 30.9012 32.2486 31 32 31H17.9375C17.6889 31 17.4504 30.9012 17.2746 30.7254C17.0988 30.5496 17 30.3111 17 30.0625ZM17 22.5625C17 22.3139 17.0988 22.0754 17.2746 21.8996C17.4504 21.7238 17.6889 21.625 17.9375 21.625H32C32.2486 21.625 32.4871 21.7238 32.6629 21.8996C32.8387 22.0754 32.9375 22.3139 32.9375 22.5625C32.9375 22.8111 32.8387 23.0496 32.6629 23.2254C32.4871 23.4012 32.2486 23.5 32 23.5H17.9375C17.6889 23.5 17.4504 23.4012 17.2746 23.2254C17.0988 23.0496 17 22.8111 17 22.5625Z" fill="white"/>
</svg>
