<svg width="61" height="61" viewBox="0 0 61 61" fill="none" xmlns="http://www.w3.org/2000/svg">
<circle cx="30.5" cy="30.5" r="30.5" fill="#C5789D"/>
<path d="M30.5 24.1562C30.5 23.9159 30.4045 23.6854 30.2346 23.5154C30.0646 23.3455 29.8341 23.25 29.5938 23.25C29.3534 23.25 29.1229 23.3455 28.9529 23.5154C28.783 23.6854 28.6875 23.9159 28.6875 24.1562V36.8438C28.6875 37.0841 28.783 37.3146 28.9529 37.4846C29.1229 37.6545 29.3534 37.75 29.5938 37.75C29.8341 37.75 30.0646 37.6545 30.2346 37.4846C30.4045 37.3146 30.5 37.0841 30.5 36.8438V24.1562ZM36.8438 25.7476C39.5299 23.1739 45.5347 28.2706 36.8438 34.125C28.1528 28.2706 34.1576 23.1721 36.8438 25.7476ZM20.5312 25.0625C20.2909 25.0625 20.0604 25.158 19.8904 25.3279C19.7205 25.4979 19.625 25.7284 19.625 25.9688C19.625 26.2091 19.7205 26.4396 19.8904 26.6096C20.0604 26.7795 20.2909 26.875 20.5312 26.875H25.9688C26.2091 26.875 26.4396 26.7795 26.6096 26.6096C26.7795 26.4396 26.875 26.2091 26.875 25.9688C26.875 25.7284 26.7795 25.4979 26.6096 25.3279C26.4396 25.158 26.2091 25.0625 25.9688 25.0625H20.5312ZM20.5312 28.6875C20.2909 28.6875 20.0604 28.783 19.8904 28.9529C19.7205 29.1229 19.625 29.3534 19.625 29.5938C19.625 29.8341 19.7205 30.0646 19.8904 30.2346C20.0604 30.4045 20.2909 30.5 20.5312 30.5H25.9688C26.2091 30.5 26.4396 30.4045 26.6096 30.2346C26.7795 30.0646 26.875 29.8341 26.875 29.5938C26.875 29.3534 26.7795 29.1229 26.6096 28.9529C26.4396 28.783 26.2091 28.6875 25.9688 28.6875H20.5312ZM20.5312 32.3125C20.2909 32.3125 20.0604 32.408 19.8904 32.5779C19.7205 32.7479 19.625 32.9784 19.625 33.2188C19.625 33.4591 19.7205 33.6896 19.8904 33.8596C20.0604 34.0295 20.2909 34.125 20.5312 34.125H25.9688C26.2091 34.125 26.4396 34.0295 26.6096 33.8596C26.7795 33.6896 26.875 33.4591 26.875 33.2188C26.875 32.9784 26.7795 32.7479 26.6096 32.5779C26.4396 32.408 26.2091 32.3125 25.9688 32.3125H20.5312Z" fill="white"/>
<path fill-rule="evenodd" clip-rule="evenodd" d="M16 23.25C16 22.2886 16.3819 21.3666 17.0617 20.6867C17.7416 20.0069 18.6636 19.625 19.625 19.625H41.375C42.3364 19.625 43.2584 20.0069 43.9383 20.6867C44.6181 21.3666 45 22.2886 45 23.25V37.75C45 38.7114 44.6181 39.6334 43.9383 40.3133C43.2584 40.9931 42.3364 41.375 41.375 41.375H19.625C18.6636 41.375 17.7416 40.9931 17.0617 40.3133C16.3819 39.6334 16 38.7114 16 37.75V23.25ZM19.625 21.4375C19.1443 21.4375 18.6833 21.6285 18.3434 21.9684C18.0035 22.3083 17.8125 22.7693 17.8125 23.25V37.75C17.8125 38.2307 18.0035 38.6917 18.3434 39.0316C18.6833 39.3715 19.1443 39.5625 19.625 39.5625H41.375C41.8557 39.5625 42.3167 39.3715 42.6566 39.0316C42.9965 38.6917 43.1875 38.2307 43.1875 37.75V23.25C43.1875 22.7693 42.9965 22.3083 42.6566 21.9684C42.3167 21.6285 41.8557 21.4375 41.375 21.4375H19.625Z" fill="white"/>
</svg>
