<svg width="23" height="23" viewBox="0 0 23 23" fill="none" xmlns="http://www.w3.org/2000/svg">
<path d="M23 11.5C23 17.8513 17.8513 23 11.5 23C5.14873 23 0 17.8513 0 11.5C0 5.14873 5.14873 0 11.5 0C17.8513 0 23 5.14873 23 11.5Z" fill="#DA036A"/>
<path d="M18 11.5398C18 7.92788 15.09 5 11.5008 5C7.91001 5.00081 5 7.92788 5 11.5406C5 14.804 7.37708 17.5093 10.4837 18V13.4303H8.83452V11.5406H10.4853V10.0986C10.4853 8.46001 11.4561 7.55499 12.9404 7.55499C13.652 7.55499 14.3954 7.68254 14.3954 7.68254V9.29109H13.5757C12.769 9.29109 12.5171 9.79559 12.5171 10.3131V11.5398H14.319L14.0314 13.4294H12.5163V17.9992C15.6229 17.5085 18 14.8032 18 11.5398Z" fill="white"/>
</svg>
