<svg width="61" height="61" viewBox="0 0 61 61" fill="none" xmlns="http://www.w3.org/2000/svg">
<circle cx="30.5" cy="30.5" r="30.5" fill="#C5789D"/>
<g clip-path="url(#clip0_571_42)">
<path d="M37.0094 31.9687C36.1906 33.6281 35.0813 35.2812 33.9469 36.7656C32.8708 38.165 31.7202 39.5055 30.5 40.7812C29.2798 39.5055 28.1292 38.165 27.0531 36.7656C25.9188 35.2812 24.8094 33.6281 23.9906 31.9687C23.1625 30.2922 22.6875 28.7219 22.6875 27.375C22.6875 25.303 23.5106 23.3159 24.9757 21.8507C26.4409 20.3856 28.428 19.5625 30.5 19.5625C32.572 19.5625 34.5591 20.3856 36.0243 21.8507C37.4894 23.3159 38.3125 25.303 38.3125 27.375C38.3125 28.7219 37.8359 30.2922 37.0094 31.9687ZM30.5 43C30.5 43 39.875 34.1156 39.875 27.375C39.875 24.8886 38.8873 22.504 37.1291 20.7459C35.371 18.9877 32.9864 18 30.5 18C28.0136 18 25.629 18.9877 23.8709 20.7459C22.1127 22.504 21.125 24.8886 21.125 27.375C21.125 34.1156 30.5 43 30.5 43Z" fill="white"/>
<path d="M30.5 30.5C29.6712 30.5 28.8763 30.1708 28.2903 29.5847C27.7042 28.9987 27.375 28.2038 27.375 27.375C27.375 26.5462 27.7042 25.7513 28.2903 25.1653C28.8763 24.5792 29.6712 24.25 30.5 24.25C31.3288 24.25 32.1237 24.5792 32.7097 25.1653C33.2958 25.7513 33.625 26.5462 33.625 27.375C33.625 28.2038 33.2958 28.9987 32.7097 29.5847C32.1237 30.1708 31.3288 30.5 30.5 30.5ZM30.5 32.0625C31.7432 32.0625 32.9355 31.5686 33.8146 30.6896C34.6936 29.8105 35.1875 28.6182 35.1875 27.375C35.1875 26.1318 34.6936 24.9395 33.8146 24.0604C32.9355 23.1814 31.7432 22.6875 30.5 22.6875C29.2568 22.6875 28.0645 23.1814 27.1854 24.0604C26.3064 24.9395 25.8125 26.1318 25.8125 27.375C25.8125 28.6182 26.3064 29.8105 27.1854 30.6896C28.0645 31.5686 29.2568 32.0625 30.5 32.0625Z" fill="white"/>
</g>
<defs>
<clipPath id="clip0_571_42">
<rect width="25" height="25" fill="white" transform="translate(18 18)"/>
</clipPath>
</defs>
</svg>
