<svg width="61" height="61" viewBox="0 0 61 61" fill="none" xmlns="http://www.w3.org/2000/svg">
<circle cx="30.5" cy="30.5" r="30.5" fill="#C5789D"/>
<g clip-path="url(#clip0_571_44)">
<path d="M24.25 18C23.4212 18 22.6263 18.3292 22.0403 18.9153C21.4542 19.5013 21.125 20.2962 21.125 21.125V22.8953L19.6547 23.6797C19.1548 23.9462 18.7368 24.3436 18.4453 24.8294C18.1539 25.3152 17.9999 25.871 18 26.4375V39.875C18 40.7038 18.3292 41.4987 18.9153 42.0847C19.5013 42.6708 20.2962 43 21.125 43H39.875C40.7038 43 41.4987 42.6708 42.0847 42.0847C42.6708 41.4987 43 40.7038 43 39.875V26.4375C43.0001 25.871 42.8461 25.3152 42.5547 24.8294C42.2632 24.3436 41.8452 23.9462 41.3453 23.6797L39.875 22.8953V21.125C39.875 20.2962 39.5458 19.5013 38.9597 18.9153C38.3737 18.3292 37.5788 18 36.75 18H24.25ZM39.875 24.6672L40.6094 25.0578C40.8596 25.191 41.0688 25.3898 41.2147 25.6329C41.3606 25.8759 41.4376 26.154 41.4375 26.4375V27.7141L39.875 28.6516V24.6672ZM38.3125 29.5891L32.4531 33.1047L30.5 31.9328L28.5469 33.1047L22.6875 29.5891V21.125C22.6875 20.7106 22.8521 20.3132 23.1451 20.0201C23.4382 19.7271 23.8356 19.5625 24.25 19.5625H36.75C37.1644 19.5625 37.5618 19.7271 37.8549 20.0201C38.1479 20.3132 38.3125 20.7106 38.3125 21.125V29.5891ZM21.125 28.6516L19.5625 27.7141V26.4375C19.5627 26.1543 19.6398 25.8765 19.7857 25.6337C19.9316 25.391 20.1407 25.1925 20.3906 25.0594L21.125 24.6672V28.6516ZM41.4375 29.5359V38.4953L33.9719 34.0156L41.4375 29.5359ZM41.3828 40.2859C41.2926 40.6167 41.0962 40.9087 40.8237 41.1168C40.5512 41.3249 40.2179 41.4376 39.875 41.4375H21.125C20.7819 41.4375 20.4484 41.3246 20.1759 41.1161C19.9034 40.9077 19.7071 40.6155 19.6172 40.2844L30.5 33.7547L41.3828 40.2859ZM19.5625 38.4937V29.5359L27.0281 34.0156L19.5625 38.4953V38.4937Z" fill="white"/>
</g>
<defs>
<clipPath id="clip0_571_44">
<rect width="25" height="25" fill="white" transform="translate(18 18)"/>
</clipPath>
</defs>
</svg>
