<svg width="23" height="24" viewBox="0 0 23 24" fill="none" xmlns="http://www.w3.org/2000/svg">
<path d="M23 11.5986C23 18.0043 18.0043 23.1972 11.5986 23.1972C5.19287 23.1972 0 18.0043 0 11.5986C0 5.19287 5.19287 0 11.5986 0C18.0043 0 23 5.19287 23 11.5986Z" fill="#DA036A"/>
<g clip-path="url(#clip0_596_43)">
<path d="M12.3125 5H13.9213C14.0383 5.58094 14.36 6.31381 14.9247 7.041C15.4772 7.75356 16.2101 8.25 17.1875 8.25V9.875C15.7632 9.875 14.6931 9.21362 13.9375 8.38894V13.9375C13.9375 14.741 13.6992 15.5264 13.2528 16.1945C12.8065 16.8626 12.172 17.3833 11.4297 17.6908C10.6873 17.9982 9.8705 18.0787 9.08245 17.9219C8.2944 17.7652 7.57053 17.3783 7.00238 16.8101C6.43423 16.242 6.04731 15.5181 5.89056 14.7301C5.73381 13.942 5.81426 13.1252 6.12174 12.3828C6.42922 11.6405 6.94992 11.006 7.618 10.5597C8.28607 10.1133 9.07152 9.875 9.875 9.875V11.5C9.39291 11.5 8.92164 11.643 8.5208 11.9108C8.11995 12.1786 7.80753 12.5593 7.62305 13.0047C7.43856 13.4501 7.39029 13.9402 7.48434 14.413C7.57839 14.8859 7.81054 15.3202 8.15143 15.6611C8.49232 16.002 8.92664 16.2341 9.39947 16.3282C9.8723 16.4222 10.3624 16.3739 10.8078 16.1895C11.2532 16.005 11.6339 15.6925 11.9017 15.2917C12.1695 14.8909 12.3125 14.4196 12.3125 13.9375V5Z" fill="white"/>
</g>
<defs>
<clipPath id="clip0_596_43">
<rect width="13" height="13" fill="white" transform="translate(5 5)"/>
</clipPath>
</defs>
</svg>
