<svg width="37" height="37" viewBox="0 0 37 37" fill="none" xmlns="http://www.w3.org/2000/svg">
<circle cx="18.5" cy="18.5" r="18.5" fill="#8BB760"/>
<path d="M12.2 12.768C13.384 12.768 14.4187 13.0027 15.304 13.472C16.1893 13.9413 16.872 14.6027 17.352 15.456C17.8427 16.2987 18.088 17.2747 18.088 18.384C18.088 19.4827 17.8427 20.4587 17.352 21.312C16.872 22.1653 16.184 22.8267 15.288 23.296C14.4027 23.7653 13.3733 24 12.2 24H7.992V12.768H12.2ZM12.024 21.632C13.0587 21.632 13.864 21.3493 14.44 20.784C15.016 20.2187 15.304 19.4187 15.304 18.384C15.304 17.3493 15.016 16.544 14.44 15.968C13.864 15.392 13.0587 15.104 12.024 15.104H10.728V21.632H12.024ZM26.609 22.016H22.417L21.745 24H18.881L22.945 12.768H26.113L30.177 24H27.281L26.609 22.016ZM25.905 19.904L24.513 15.792L23.137 19.904H25.905Z" fill="white"/>
</svg>
