<svg width="61" height="61" viewBox="0 0 61 61" fill="none" xmlns="http://www.w3.org/2000/svg">
<circle cx="30.5" cy="30.5" r="30.5" fill="#C5789D"/>
<path d="M20.3749 18.875C20.3749 18.6429 20.4671 18.4204 20.6312 18.2563C20.7953 18.0922 21.0179 18 21.2499 18H38.7499C38.982 18 39.2046 18.0922 39.3687 18.2563C39.5327 18.4204 39.6249 18.6429 39.6249 18.875C39.6249 19.8165 39.6039 20.7125 39.5654 21.563C40.2569 21.6775 40.9185 21.9293 41.5111 22.3036C42.1037 22.6778 42.6154 23.167 43.0159 23.7421C43.4165 24.3173 43.6978 24.9668 43.8434 25.6524C43.9889 26.3381 43.9956 27.0459 43.8632 27.7342C43.7308 28.4225 43.462 29.0773 43.0725 29.66C42.683 30.2427 42.1807 30.7415 41.5954 31.127C41.01 31.5125 40.3534 31.7769 39.6642 31.9046C38.9751 32.0323 38.2673 32.0207 37.5827 31.8705C36.2002 35.1343 34.2962 36.7303 32.6249 37.1398V40.9425L35.1187 41.5655C35.4582 41.6495 35.7784 41.8018 36.0584 42.0117L39.2749 44.425C39.4219 44.5352 39.5304 44.6888 39.5851 44.8641C39.6399 45.0394 39.6381 45.2275 39.58 45.4017C39.522 45.5759 39.4105 45.7275 39.2616 45.8348C39.1126 45.9422 38.9336 46 38.7499 46H21.2499C21.0663 46 20.8873 45.9422 20.7383 45.8348C20.5893 45.7275 20.4779 45.5759 20.4198 45.4017C20.3618 45.2275 20.36 45.0394 20.4147 44.8641C20.4695 44.6888 20.578 44.5352 20.7249 44.425L23.9414 42.0117C24.2214 41.8018 24.5417 41.6495 24.8812 41.5655L27.3749 40.9425V37.1398C25.7037 36.7303 23.7997 35.1343 22.4172 31.8688C21.7322 32.0198 21.0239 32.032 20.3341 31.9047C19.6444 31.7774 18.9871 31.5132 18.4011 31.1276C17.8152 30.7421 17.3124 30.243 16.9225 29.66C16.5327 29.0769 16.2636 28.4216 16.1312 27.7327C15.9988 27.0439 16.0058 26.3356 16.1518 25.6495C16.2977 24.9634 16.5797 24.3135 16.981 23.7383C17.3823 23.163 17.8948 22.6739 18.4882 22.3C19.0817 21.9261 19.744 21.6749 20.4362 21.5613C20.395 20.6664 20.3746 19.7708 20.3749 18.875ZM20.5482 23.32C19.635 23.4871 18.8256 24.0101 18.298 24.7739C17.7705 25.5378 17.568 26.48 17.7351 27.3931C17.9021 28.3063 18.4251 29.1157 19.189 29.6433C19.9529 30.1708 20.895 30.3733 21.8082 30.2063C21.2254 28.3687 20.7792 26.1007 20.5482 23.32ZM38.1934 30.2063C39.1066 30.3733 40.0488 30.1708 40.8126 29.6433C41.5765 29.1157 42.0995 28.3063 42.2666 27.3931C42.4336 26.48 42.2311 25.5378 41.7036 24.7739C41.176 24.0101 40.3666 23.4871 39.4534 23.32C39.2207 26.1025 38.7744 28.3687 38.1934 30.2063ZM22.1319 19.75C22.1442 20.6548 22.1774 21.5105 22.2299 22.3208C22.4574 25.8698 23.0297 28.5262 23.7524 30.488C25.2644 34.59 27.3469 35.5 28.2499 35.5C28.482 35.5 28.7046 35.5922 28.8687 35.7563C29.0327 35.9204 29.1249 36.1429 29.1249 36.375V40.9425C29.1249 41.3326 28.9946 41.7116 28.7545 42.0191C28.5145 42.3267 28.1786 42.5452 27.8002 42.64L25.3047 43.263C25.1914 43.2912 25.0849 43.3418 24.9914 43.4118L23.8749 44.25H36.1249L35.0084 43.4118C34.9144 43.3416 34.8073 43.291 34.6934 43.263L32.1997 42.64C31.8213 42.5452 31.4853 42.3267 31.2453 42.0191C31.0053 41.7116 30.8749 41.3326 30.8749 40.9425V36.375C30.8749 36.1429 30.9671 35.9204 31.1312 35.7563C31.2953 35.5922 31.5179 35.5 31.7499 35.5C32.6529 35.5 34.7354 34.59 36.2474 30.488C36.9702 28.528 37.5424 25.868 37.7699 22.3208C37.8224 21.5105 37.8557 20.6548 37.8679 19.75H22.1319Z" fill="white"/>
</svg>
