<svg width="61" height="61" viewBox="0 0 61 61" fill="none" xmlns="http://www.w3.org/2000/svg">
<circle cx="30.5" cy="30.5" r="30.5" fill="#C5789D"/>
<g clip-path="url(#clip0_571_41)">
<path d="M24.1599 32.3125C24.881 32.3125 25.5725 32.0261 26.0824 31.5162C26.5922 31.0063 26.8787 30.3148 26.8787 29.5938C26.8787 28.8727 26.5922 28.1812 26.0824 27.6713C25.5725 27.1614 24.881 26.875 24.1599 26.875C23.4389 26.875 22.7473 27.1614 22.2375 27.6713C21.7276 28.1812 21.4412 28.8727 21.4412 29.5938C21.4412 30.3148 21.7276 31.0063 22.2375 31.5162C22.7473 32.0261 23.4389 32.3125 24.1599 32.3125Z" fill="white"/>
<path d="M41.3787 39.5625C41.3787 40.5239 40.9967 41.4459 40.3169 42.1258C39.6371 42.8056 38.7151 43.1875 37.7537 43.1875H19.6287C18.6673 43.1875 17.7452 42.8056 17.0654 42.1258C16.3856 41.4459 16.0037 40.5239 16.0037 39.5625V25.0625C16.0037 24.1017 16.3851 23.1802 17.0641 22.5005C17.7432 21.8208 18.6643 21.4385 19.625 21.4375C19.625 20.4761 20.007 19.5541 20.6868 18.8742C21.3666 18.1944 22.2886 17.8125 23.25 17.8125H41.375C42.3364 17.8125 43.2585 18.1944 43.9383 18.8742C44.6181 19.5541 45 20.4761 45 21.4375V35.9375C45 36.8983 44.6186 37.8198 43.9396 38.4995C43.2605 39.1792 42.3394 39.5615 41.3787 39.5625ZM41.375 19.625H23.25C22.7693 19.625 22.3083 19.816 21.9684 20.1559C21.6285 20.4958 21.4375 20.9568 21.4375 21.4375H37.7537C38.7151 21.4375 39.6371 21.8194 40.3169 22.4992C40.9967 23.1791 41.3787 24.1011 41.3787 25.0625V37.75C41.8587 37.749 42.3188 37.5577 42.658 37.2179C42.9971 36.878 43.1875 36.4176 43.1875 35.9375V21.4375C43.1875 20.9568 42.9966 20.4958 42.6567 20.1559C42.3168 19.816 41.8557 19.625 41.375 19.625ZM19.6287 23.25C19.148 23.25 18.6869 23.441 18.347 23.7809C18.0071 24.1208 17.8162 24.5818 17.8162 25.0625V39.5625L22.612 35.2959C22.7602 35.1483 22.9548 35.0564 23.1629 35.036C23.371 35.0155 23.5798 35.0676 23.7539 35.1835L28.5752 38.3971L35.2995 31.6727C35.4339 31.5382 35.6073 31.4493 35.7949 31.4187C35.9826 31.3882 36.1752 31.4174 36.3454 31.5023L39.5662 35.0312V25.0625C39.5662 24.5818 39.3752 24.1208 39.0353 23.7809C38.6954 23.441 38.2344 23.25 37.7537 23.25H19.6287Z" fill="white"/>
</g>
<defs>
<clipPath id="clip0_571_41">
<rect width="29" height="29" fill="white" transform="translate(16 16)"/>
</clipPath>
</defs>
</svg>
