<svg width="61" height="61" viewBox="0 0 61 61" fill="none" xmlns="http://www.w3.org/2000/svg">
<circle cx="30.5" cy="30.5" r="30.5" fill="#C5789D"/>
<g clip-path="url(#clip0_571_43)">
<path d="M41.375 20.8125C41.8557 20.8125 42.3167 21.0035 42.6566 21.3434C42.9965 21.6833 43.1875 22.1443 43.1875 22.625V37.125C43.1875 37.6057 42.9965 38.0667 42.6566 38.4066C42.3167 38.7465 41.8557 38.9375 41.375 38.9375H24.0004C23.039 38.9377 22.1172 39.3198 21.4375 39.9996L17.8125 43.6246V22.625C17.8125 22.1443 18.0035 21.6833 18.3434 21.3434C18.6833 21.0035 19.1443 20.8125 19.625 20.8125H41.375ZM19.625 19C18.6636 19 17.7416 19.3819 17.0617 20.0617C16.3819 20.7416 16 21.6636 16 22.625V45.8123C16 45.9916 16.0533 46.1669 16.153 46.316C16.2527 46.465 16.3943 46.5811 16.5601 46.6496C16.7258 46.7181 16.9081 46.7359 17.0839 46.7008C17.2598 46.6656 17.4212 46.5791 17.5479 46.4521L22.7189 41.2811C23.0588 40.9411 23.5197 40.7501 24.0004 40.75H41.375C42.3364 40.75 43.2584 40.3681 43.9383 39.6883C44.6181 39.0084 45 38.0864 45 37.125V22.625C45 21.6636 44.6181 20.7416 43.9383 20.0617C43.2584 19.3819 42.3364 19 41.375 19H19.625Z" fill="white"/>
<path d="M21.4375 25.3438C21.4375 25.1034 21.533 24.8729 21.7029 24.7029C21.8729 24.533 22.1034 24.4375 22.3438 24.4375H38.6562C38.8966 24.4375 39.1271 24.533 39.2971 24.7029C39.467 24.8729 39.5625 25.1034 39.5625 25.3438C39.5625 25.5841 39.467 25.8146 39.2971 25.9846C39.1271 26.1545 38.8966 26.25 38.6562 26.25H22.3438C22.1034 26.25 21.8729 26.1545 21.7029 25.9846C21.533 25.8146 21.4375 25.5841 21.4375 25.3438ZM21.4375 29.875C21.4375 29.6346 21.533 29.4041 21.7029 29.2342C21.8729 29.0642 22.1034 28.9688 22.3438 28.9688H38.6562C38.8966 28.9688 39.1271 29.0642 39.2971 29.2342C39.467 29.4041 39.5625 29.6346 39.5625 29.875C39.5625 30.1154 39.467 30.3459 39.2971 30.5158C39.1271 30.6858 38.8966 30.7812 38.6562 30.7812H22.3438C22.1034 30.7812 21.8729 30.6858 21.7029 30.5158C21.533 30.3459 21.4375 30.1154 21.4375 29.875ZM21.4375 34.4062C21.4375 34.1659 21.533 33.9354 21.7029 33.7654C21.8729 33.5955 22.1034 33.5 22.3438 33.5H31.4062C31.6466 33.5 31.8771 33.5955 32.0471 33.7654C32.217 33.9354 32.3125 34.1659 32.3125 34.4062C32.3125 34.6466 32.217 34.8771 32.0471 35.0471C31.8771 35.217 31.6466 35.3125 31.4062 35.3125H22.3438C22.1034 35.3125 21.8729 35.217 21.7029 35.0471C21.533 34.8771 21.4375 34.6466 21.4375 34.4062Z" fill="white"/>
</g>
<defs>
<clipPath id="clip0_571_43">
<rect width="29" height="29" fill="white" transform="translate(16 19)"/>
</clipPath>
</defs>
</svg>
