<svg width="24" height="24" viewBox="0 0 24 24" fill="none" xmlns="http://www.w3.org/2000/svg">
<path d="M23.1972 11.5986C23.1972 18.0043 18.0043 23.1972 11.5986 23.1972C5.19287 23.1972 0 18.0043 0 11.5986C0 5.19287 5.19287 0 11.5986 0C18.0043 0 23.1972 5.19287 23.1972 11.5986Z" fill="#DA036A"/>
<path d="M11.5 5C9.73606 5 9.51425 5.00813 8.82119 5.039C8.12812 5.0715 7.65606 5.18037 7.2425 5.34125C6.8087 5.50442 6.41577 5.76036 6.09119 6.09119C5.76056 6.41594 5.50465 6.80882 5.34125 7.2425C5.18037 7.65525 5.07069 8.12812 5.039 8.81875C5.00813 9.51344 5 9.73444 5 11.5008C5 13.2656 5.00813 13.4866 5.039 14.1796C5.0715 14.8719 5.18037 15.3439 5.34125 15.7575C5.50781 16.1849 5.72963 16.5472 6.09119 16.9088C6.45194 17.2704 6.81431 17.493 7.24169 17.6587C7.65606 17.8196 8.12731 17.9293 8.81956 17.961C9.51344 17.9919 9.73444 18 11.5 18C13.2656 18 13.4858 17.9919 14.1796 17.961C14.8711 17.9285 15.3448 17.8196 15.7583 17.6587C16.1918 17.4955 16.5845 17.2396 16.9088 16.9088C17.2704 16.5472 17.4922 16.1849 17.6587 15.7575C17.8188 15.3439 17.9285 14.8719 17.961 14.1796C17.9919 13.4866 18 13.2656 18 11.5C18 9.73444 17.9919 9.51344 17.961 8.81956C17.9285 8.12813 17.8188 7.65525 17.6587 7.2425C17.4954 6.80881 17.2395 6.41592 16.9088 6.09119C16.5843 5.76024 16.1914 5.50427 15.7575 5.34125C15.3431 5.18037 14.8702 5.07069 14.1788 5.039C13.4849 5.00813 13.2648 5 11.4984 5H11.5008H11.5ZM10.9174 6.17163H11.5008C13.2363 6.17163 13.4419 6.17731 14.1268 6.209C14.7606 6.23744 15.1051 6.34388 15.3342 6.43244C15.6372 6.55025 15.8542 6.69162 16.0817 6.91912C16.3092 7.14663 16.4497 7.36275 16.5676 7.66663C16.6569 7.89494 16.7626 8.23944 16.791 8.87319C16.8227 9.55813 16.8292 9.76369 16.8292 11.4984C16.8292 13.2331 16.8227 13.4394 16.791 14.1244C16.7626 14.7581 16.6561 15.1018 16.5676 15.3309C16.4634 15.6132 16.297 15.8684 16.0809 16.0776C15.8534 16.3051 15.6372 16.4457 15.3334 16.5635C15.1059 16.6529 14.7614 16.7585 14.1268 16.7878C13.4419 16.8186 13.2363 16.8259 11.5008 16.8259C9.76531 16.8259 9.55894 16.8186 8.874 16.7878C8.24025 16.7585 7.89656 16.6529 7.66744 16.5635C7.38509 16.4594 7.12966 16.2934 6.91994 16.0776C6.70361 15.868 6.53702 15.6126 6.43244 15.3301C6.34388 15.1018 6.23744 14.7573 6.209 14.1236C6.17813 13.4386 6.17163 13.2331 6.17163 11.4967C6.17163 9.76125 6.17813 9.5565 6.209 8.87156C6.23825 8.23781 6.34388 7.89331 6.43325 7.66419C6.55106 7.36112 6.69244 7.14419 6.91994 6.91669C7.14744 6.68919 7.36356 6.54862 7.66744 6.43081C7.89656 6.34144 8.24025 6.23581 8.874 6.20656C9.47363 6.17894 9.706 6.17081 10.9174 6.17V6.17163ZM14.9702 7.25062C14.8678 7.25062 14.7663 7.2708 14.6717 7.31C14.5771 7.3492 14.4911 7.40665 14.4186 7.47908C14.3462 7.55151 14.2888 7.6375 14.2496 7.73213C14.2104 7.82677 14.1902 7.92819 14.1902 8.03063C14.1902 8.13306 14.2104 8.23448 14.2496 8.32912C14.2888 8.42375 14.3462 8.50974 14.4186 8.58217C14.4911 8.6546 14.5771 8.71205 14.6717 8.75125C14.7663 8.79045 14.8678 8.81063 14.9702 8.81063C15.1771 8.81063 15.3755 8.72845 15.5217 8.58217C15.668 8.43589 15.7502 8.23749 15.7502 8.03063C15.7502 7.82376 15.668 7.62536 15.5217 7.47908C15.3755 7.3328 15.1771 7.25062 14.9702 7.25062ZM11.5008 8.16225C11.0581 8.15534 10.6184 8.23658 10.2073 8.40124C9.79624 8.5659 9.42204 8.81068 9.1065 9.12134C8.79095 9.43201 8.54036 9.80234 8.36931 10.2108C8.19826 10.6192 8.11017 11.0576 8.11017 11.5004C8.11017 11.9432 8.19826 12.3816 8.36931 12.79C8.54036 13.1985 8.79095 13.5688 9.1065 13.8795C9.42204 14.1901 9.79624 14.4349 10.2073 14.5996C10.6184 14.7642 11.0581 14.8455 11.5008 14.8386C12.3771 14.8249 13.2129 14.4672 13.8278 13.8426C14.4427 13.2181 14.7873 12.3768 14.7873 11.5004C14.7873 10.624 14.4427 9.78271 13.8278 9.15817C13.2129 8.53363 12.3771 8.17592 11.5008 8.16225ZM11.5008 9.33306C12.0755 9.33306 12.6267 9.56136 13.0331 9.96774C13.4394 10.3741 13.6678 10.9253 13.6678 11.5C13.6678 12.0747 13.4394 12.6259 13.0331 13.0323C12.6267 13.4386 12.0755 13.6669 11.5008 13.6669C10.9261 13.6669 10.3749 13.4386 9.96856 13.0323C9.56218 12.6259 9.33388 12.0747 9.33388 11.5C9.33388 10.9253 9.56218 10.3741 9.96856 9.96774C10.3749 9.56136 10.9261 9.33306 11.5008 9.33306Z" fill="white"/>
</svg>
