<svg width="70" height="70" viewBox="0 0 70 70" fill="none" xmlns="http://www.w3.org/2000/svg">
<circle cx="34.5549" cy="34.5549" r="34.5549" fill="#01A3B9"/>
<path d="M43.1875 19.125C43.1875 18.4454 43.4575 17.7936 43.938 17.313C44.4186 16.8325 45.0704 16.5625 45.75 16.5625H50.875C51.5546 16.5625 52.2064 16.8325 52.687 17.313C53.1675 17.7936 53.4375 18.4454 53.4375 19.125V49.875H54.7188C55.0586 49.875 55.3845 50.01 55.6247 50.2503C55.865 50.4905 56 50.8164 56 51.1562C56 51.4961 55.865 51.822 55.6247 52.0622C55.3845 52.3025 55.0586 52.4375 54.7188 52.4375H16.2812C15.9414 52.4375 15.6156 52.3025 15.3753 52.0622C15.135 51.822 15 51.4961 15 51.1562C15 50.8164 15.135 50.4905 15.3753 50.2503C15.6156 50.01 15.9414 49.875 16.2812 49.875H17.5625V42.1875C17.5625 41.5079 17.8325 40.8561 18.313 40.3755C18.7936 39.895 19.4454 39.625 20.125 39.625H25.25C25.9296 39.625 26.5814 39.895 27.062 40.3755C27.5425 40.8561 27.8125 41.5079 27.8125 42.1875V49.875H30.375V31.9375C30.375 31.2579 30.645 30.6061 31.1255 30.1255C31.6061 29.645 32.2579 29.375 32.9375 29.375H38.0625C38.7421 29.375 39.3939 29.645 39.8745 30.1255C40.355 30.6061 40.625 31.2579 40.625 31.9375V49.875H43.1875V19.125ZM45.75 49.875H50.875V19.125H45.75V49.875ZM38.0625 49.875V31.9375H32.9375V49.875H38.0625ZM25.25 49.875V42.1875H20.125V49.875H25.25Z" fill="white"/>
<path fill-rule="evenodd" clip-rule="evenodd" d="M20.124 40.9062H23.9678H22.6873H20.124ZM30.5578 15.025C30.5578 14.7532 30.6639 14.4924 30.8527 14.3002C31.0415 14.108 31.2975 14 31.5645 14H39.6181C39.8851 14 40.1412 14.108 40.33 14.3002C40.5187 14.4924 40.6248 14.7532 40.6248 15.025V23.225C40.6248 23.4968 40.5187 23.7576 40.33 23.9498C40.1412 24.142 39.8851 24.25 39.6181 24.25C39.3511 24.25 39.0951 24.142 38.9063 23.9498C38.7175 23.7576 38.6114 23.4968 38.6114 23.225V17.895L31.337 26.9499C31.248 27.0605 31.1372 27.151 31.0117 27.2154C30.8862 27.2799 30.7489 27.3168 30.6086 27.324C30.4682 27.3311 30.328 27.3083 30.1968 27.2569C30.0657 27.2055 29.9466 27.1268 29.8471 27.0257L24.6385 21.7224L17.2775 32.0277C17.1165 32.2362 16.8824 32.373 16.6243 32.4094C16.3663 32.4458 16.1045 32.3789 15.8938 32.2229C15.6832 32.0668 15.5402 31.8337 15.4949 31.5725C15.4495 31.3113 15.5054 31.0424 15.6507 30.8223L23.7043 19.5473C23.7897 19.4274 23.8997 19.3278 24.0267 19.2554C24.1536 19.1829 24.2944 19.1393 24.4395 19.1276C24.5845 19.116 24.7304 19.1364 24.8669 19.1876C25.0034 19.2388 25.1275 19.3196 25.2304 19.4243L30.4833 24.7748L37.494 16.05H31.5645C31.2975 16.05 31.0415 15.942 30.8527 15.7498C30.6639 15.5576 30.5578 15.2968 30.5578 15.025Z" fill="white"/>
</svg>
