<svg width="70" height="70" viewBox="0 0 70 70" fill="none" xmlns="http://www.w3.org/2000/svg">
<circle cx="34.5549" cy="34.5549" r="34.5549" fill="#01A3B9"/>
<path d="M18.3217 34.5001C18.7101 34.5001 19.0825 34.3458 19.3571 34.0712C19.6317 33.7966 19.786 33.4242 19.786 33.0358C19.786 32.6475 19.6317 32.275 19.3571 32.0004C19.0825 31.7258 18.7101 31.5715 18.3217 31.5715C17.9334 31.5715 17.5609 31.7258 17.2863 32.0004C17.0117 32.275 16.8574 32.6475 16.8574 33.0358C16.8574 33.4242 17.0117 33.7966 17.2863 34.0712C17.5609 34.3458 17.9334 34.5001 18.3217 34.5001Z" fill="white"/>
<path d="M25.6429 14C24.0894 14 22.5997 14.6171 21.5012 15.7155C20.4028 16.8139 19.7857 18.3037 19.7857 19.8571V25.7143H16.8571C15.3037 25.7143 13.8139 26.3314 12.7155 27.4298C11.6171 28.5282 11 30.018 11 31.5714L11 40.3571C11 41.9106 11.6171 43.4003 12.7155 44.4988C13.8139 45.5972 15.3037 46.2143 16.8571 46.2143H19.7857V49.1429C19.7857 50.6963 20.4028 52.1861 21.5012 53.2845C22.5997 54.3829 24.0894 55 25.6429 55H43.2143C44.7677 55 46.2575 54.3829 47.3559 53.2845C48.4543 52.1861 49.0714 50.6963 49.0714 49.1429V46.2143H52C53.5534 46.2143 55.0432 45.5972 56.1416 44.4988C57.24 43.4003 57.8571 41.9106 57.8571 40.3571V31.5714C57.8571 30.018 57.24 28.5282 56.1416 27.4298C55.0432 26.3314 53.5534 25.7143 52 25.7143H49.0714V19.8571C49.0714 18.3037 48.4543 16.8139 47.3559 15.7155C46.2575 14.6171 44.7677 14 43.2143 14H25.6429ZM22.7143 19.8571C22.7143 19.0804 23.0228 18.3355 23.572 17.7863C24.1213 17.2371 24.8662 16.9286 25.6429 16.9286H43.2143C43.991 16.9286 44.7359 17.2371 45.2851 17.7863C45.8343 18.3355 46.1429 19.0804 46.1429 19.8571V25.7143H22.7143V19.8571ZM25.6429 34.5C24.0894 34.5 22.5997 35.1171 21.5012 36.2155C20.4028 37.3139 19.7857 38.8037 19.7857 40.3571V43.2857H16.8571C16.0804 43.2857 15.3355 42.9772 14.7863 42.428C14.2371 41.8787 13.9286 41.1338 13.9286 40.3571V31.5714C13.9286 30.7947 14.2371 30.0498 14.7863 29.5006C15.3355 28.9514 16.0804 28.6429 16.8571 28.6429H52C52.7767 28.6429 53.5216 28.9514 54.0708 29.5006C54.62 30.0498 54.9286 30.7947 54.9286 31.5714V40.3571C54.9286 41.1338 54.62 41.8787 54.0708 42.428C53.5216 42.9772 52.7767 43.2857 52 43.2857H49.0714V40.3571C49.0714 38.8037 48.4543 37.3139 47.3559 36.2155C46.2575 35.1171 44.7677 34.5 43.2143 34.5H25.6429ZM46.1429 40.3571V49.1429C46.1429 49.9196 45.8343 50.6645 45.2851 51.2137C44.7359 51.7629 43.991 52.0714 43.2143 52.0714H25.6429C24.8662 52.0714 24.1213 51.7629 23.572 51.2137C23.0228 50.6645 22.7143 49.9196 22.7143 49.1429V40.3571C22.7143 39.5804 23.0228 38.8355 23.572 38.2863C24.1213 37.7371 24.8662 37.4286 25.6429 37.4286H43.2143C43.991 37.4286 44.7359 37.7371 45.2851 38.2863C45.8343 38.8355 46.1429 39.5804 46.1429 40.3571Z" fill="white"/>
<rect x="19.7852" y="34.5" width="32.2143" height="5.85714" fill="#01A3B9"/>
<g clip-path="url(#clip0_880_64)">
<path fill-rule="evenodd" clip-rule="evenodd" d="M35.2659 30.3082C35.3122 30.2459 35.3705 30.1933 35.4372 30.1536C35.5039 30.1138 35.5778 30.0875 35.6546 30.0763C35.7315 30.0652 35.8098 30.0693 35.8851 30.0884C35.9604 30.1075 36.0312 30.1413 36.0934 30.1878L41.4487 34.1828C41.511 34.2292 41.5635 34.2874 41.6033 34.3541C41.6431 34.4208 41.6694 34.4947 41.6805 34.5716C41.6917 34.6485 41.6876 34.7268 41.6685 34.8021C41.6494 34.8774 41.6156 34.9481 41.569 35.0103L39.6694 37.5568L39.2638 41.5699C39.233 41.8755 39.1234 42.1678 38.9455 42.4182C38.7677 42.6686 38.5278 42.8684 38.2495 42.9981L26.6862 48.3851L28.5549 35.765C28.6 35.4616 28.7232 35.1751 28.9123 34.9335C29.1015 34.692 29.3501 34.5037 29.6339 34.3871L33.3653 32.856L35.2659 30.3082ZM33.6565 34.0131L30.0828 35.4795C29.9879 35.5184 29.9048 35.5813 29.8417 35.6621C29.7785 35.7428 29.7374 35.8386 29.7225 35.9401L28.1751 46.3877L37.7511 41.9272C37.8435 41.8839 37.9231 41.8173 37.9821 41.7341C38.0411 41.6508 38.0775 41.5537 38.0878 41.4522L38.4761 37.6074L33.6564 34.0119L33.6565 34.0131Z" fill="white"/>
<path fill-rule="evenodd" clip-rule="evenodd" d="M28.2718 46.3426L33.5932 40.5222C33.8243 40.4886 34.0403 40.3871 34.2139 40.2308C34.3874 40.0744 34.5106 39.87 34.568 39.6436C34.6254 39.4172 34.6144 39.1788 34.5363 38.9586C34.4582 38.7385 34.3166 38.5464 34.1294 38.4067C33.9421 38.267 33.7177 38.186 33.4844 38.1739C33.2511 38.1618 33.0195 38.2191 32.8188 38.3387C32.6181 38.4582 32.4573 38.6346 32.3569 38.8455C32.2564 39.0563 32.2207 39.2923 32.2544 39.5235L28.1915 46.2826L28.1757 46.3876L28.2718 46.3426Z" fill="white"/>
</g>
<defs>
<clipPath id="clip0_880_64">
<rect width="18.8974" height="18.8974" fill="white" transform="translate(22.7129 31.3634) rotate(-8.27741)"/>
</clipPath>
</defs>
</svg>
