<svg width="72" height="71" viewBox="0 0 72 71" fill="none" xmlns="http://www.w3.org/2000/svg">
<ellipse cx="36" cy="35.5" rx="36" ry="35.5" fill="#0C5E74"/>
<path fill-rule="evenodd" clip-rule="evenodd" d="M31.25 36V19.375H33.625V33.9029L37.7646 31.4163C37.949 31.3057 38.16 31.2474 38.375 31.2474C38.59 31.2474 38.801 31.3057 38.9854 31.4163L43.125 33.9029V19.375H45.5V36C45.5 36.2101 45.4443 36.4165 45.3386 36.598C45.2328 36.7796 45.0808 36.9298 44.898 37.0334C44.7152 37.137 44.5082 37.1902 44.2981 37.1877C44.088 37.1851 43.8824 37.1269 43.7021 37.0189L38.375 33.8221L33.0479 37.0213C32.8675 37.1293 32.6616 37.1876 32.4513 37.19C32.241 37.1925 32.0338 37.139 31.851 37.0352C31.6681 36.9313 31.5161 36.7807 31.4105 36.5988C31.3049 36.417 31.2495 36.2103 31.25 36V36Z" fill="white"/>
<path d="M24.125 17H47.875C49.1348 17 50.343 17.5004 51.2338 18.3912C52.1246 19.282 52.625 20.4902 52.625 21.75V50.25C52.625 51.5098 52.1246 52.718 51.2338 53.6088C50.343 54.4996 49.1348 55 47.875 55H24.125C22.8652 55 21.657 54.4996 20.7662 53.6088C19.8754 52.718 19.375 51.5098 19.375 50.25V47.875H21.75V50.25C21.75 50.8799 22.0002 51.484 22.4456 51.9294C22.891 52.3748 23.4951 52.625 24.125 52.625H47.875C48.5049 52.625 49.109 52.3748 49.5544 51.9294C49.9998 51.484 50.25 50.8799 50.25 50.25V21.75C50.25 21.1201 49.9998 20.516 49.5544 20.0706C49.109 19.6252 48.5049 19.375 47.875 19.375H24.125C23.4951 19.375 22.891 19.6252 22.4456 20.0706C22.0002 20.516 21.75 21.1201 21.75 21.75V24.125H19.375V21.75C19.375 20.4902 19.8754 19.282 20.7662 18.3912C21.657 17.5004 22.8652 17 24.125 17V17Z" fill="white"/>
<path d="M19.375 28.875V27.6875C19.375 27.3726 19.5001 27.0705 19.7228 26.8478C19.9455 26.6251 20.2476 26.5 20.5625 26.5C20.8774 26.5 21.1795 26.6251 21.4022 26.8478C21.6249 27.0705 21.75 27.3726 21.75 27.6875V28.875H22.9375C23.2524 28.875 23.5545 29.0001 23.7772 29.2228C23.9999 29.4455 24.125 29.7476 24.125 30.0625C24.125 30.3774 23.9999 30.6795 23.7772 30.9022C23.5545 31.1249 23.2524 31.25 22.9375 31.25H18.1875C17.8726 31.25 17.5705 31.1249 17.3478 30.9022C17.1251 30.6795 17 30.3774 17 30.0625C17 29.7476 17.1251 29.4455 17.3478 29.2228C17.5705 29.0001 17.8726 28.875 18.1875 28.875H19.375ZM19.375 36V34.8125C19.375 34.4976 19.5001 34.1955 19.7228 33.9728C19.9455 33.7501 20.2476 33.625 20.5625 33.625C20.8774 33.625 21.1795 33.7501 21.4022 33.9728C21.6249 34.1955 21.75 34.4976 21.75 34.8125V36H22.9375C23.2524 36 23.5545 36.1251 23.7772 36.3478C23.9999 36.5705 24.125 36.8726 24.125 37.1875C24.125 37.5024 23.9999 37.8045 23.7772 38.0272C23.5545 38.2499 23.2524 38.375 22.9375 38.375H18.1875C17.8726 38.375 17.5705 38.2499 17.3478 38.0272C17.1251 37.8045 17 37.5024 17 37.1875C17 36.8726 17.1251 36.5705 17.3478 36.3478C17.5705 36.1251 17.8726 36 18.1875 36H19.375ZM19.375 43.125V41.9375C19.375 41.6226 19.5001 41.3205 19.7228 41.0978C19.9455 40.8751 20.2476 40.75 20.5625 40.75C20.8774 40.75 21.1795 40.8751 21.4022 41.0978C21.6249 41.3205 21.75 41.6226 21.75 41.9375V43.125H22.9375C23.2524 43.125 23.5545 43.2501 23.7772 43.4728C23.9999 43.6955 24.125 43.9976 24.125 44.3125C24.125 44.6274 23.9999 44.9295 23.7772 45.1522C23.5545 45.3749 23.2524 45.5 22.9375 45.5H18.1875C17.8726 45.5 17.5705 45.3749 17.3478 45.1522C17.1251 44.9295 17 44.6274 17 44.3125C17 43.9976 17.1251 43.6955 17.3478 43.4728C17.5705 43.2501 17.8726 43.125 18.1875 43.125H19.375Z" fill="white"/>
</svg>
